<svg xmlns="http://www.w3.org/2000/svg" viewBox="0 0 280 280" enable-background="new 0 0 280 280" xml:space="preserve"><linearGradient id="a" gradientUnits="userSpaceOnUse" x1="93.038" y1="29.779" x2="217.886" y2="284.077" gradientTransform="matrix(1 0 0 -1 0 304)"><stop offset="0" style="stop-color:#13926e;stop-opacity:.15"/><stop offset="1" style="stop-color:#ef4921;stop-opacity:5.000000e-02"/></linearGradient><path fill="url(#a)" d="M201.3 261.5c60.7-25.3 79.3-85.7 63.1-143.8C252.3 74.5 211.2 11.4 151.1 7.2 98.1 3.5 53.5 47.5 60 99.1c4 31.9-36.7 36.3-43.5 71.7-18.3 95.1 124.1 116.1 184.8 90.7z"/><defs><filter id="b" filterUnits="userSpaceOnUse" x="-44.1" y="93.4" width="372.4" height="196.9"><feColorMatrix values="1 0 0 0 0 0 1 0 0 0 0 0 1 0 0 0 0 0 1 0"/></filter></defs><mask maskUnits="userSpaceOnUse" x="-44.1" y="93.4" width="372.4" height="196.9" id="c"><path fill="#EBEDF0" filter="url(#b)" d="M201.3 261.5c60.7-25.3 79.3-85.7 63.1-143.8C252.3 74.5 211.2 11.4 151.1 7.2 98.1 3.5 53.5 47.5 60 99.1c4 31.9-36.7 36.3-43.5 71.7-18.3 95.1 124.1 116.1 184.8 90.7z"/></mask><g mask="url(#c)"><linearGradient id="d" gradientUnits="userSpaceOnUse" x1="141.633" y1="32.907" x2="142.556" y2="179.762" gradientTransform="matrix(1 0 0 -1 0 304)"><stop offset="0" style="stop-color:#101738;stop-opacity:5.000000e-02"/><stop offset="1" style="stop-color:#101738;stop-opacity:.35"/></linearGradient><path fill="url(#d)" d="M142.1 290.3c-102.8 0-186.2-44.1-186.2-98.4 0-54.4 83.4-98.4 186.2-98.4 102.8 0 186.2 44.1 186.2 98.4 0 54.3-83.3 98.4-186.2 98.4z"/><path fill="#101738" d="M239.5 142C233.9 202.6 183 250 121 250c-50.6 0-93.8-31.5-111-76v40.7C35.4 248.3 75.6 270 121 270c73.1 0 133-56.4 138.6-128h-20.1z"/><path fill="#101738" d="m249.2 117.2 23.4 25.5h-46.8l23.4-25.5z"/><ellipse fill="none" cx="41.7" cy="244" rx="20" ry="2"/><ellipse fill="#0B0C0D" fill-opacity=".2" cx="41.7" cy="244" rx="20" ry="2"/></g><g opacity=".8"><radialGradient id="e" cx="119.133" cy="172.705" r="1" gradientTransform="matrix(-37.0251 0 0 37.0249 3873.126 -4082.602)" gradientUnits="userSpaceOnUse"><stop offset="0" style="stop-color:#fff"/><stop offset=".05" style="stop-color:#fff;stop-opacity:.88"/><stop offset=".15" style="stop-color:#fff;stop-opacity:.68"/><stop offset=".26" style="stop-color:#fff;stop-opacity:.5"/><stop offset=".37" style="stop-color:#fff;stop-opacity:.34"/><stop offset=".48" style="stop-color:#fff;stop-opacity:.22"/><stop offset=".6" style="stop-color:#fff;stop-opacity:.12"/><stop offset=".72" style="stop-color:#fff;stop-opacity:5.000000e-02"/><stop offset=".85" style="stop-color:#fff;stop-opacity:1.000000e-02"/><stop offset="1" style="stop-color:#272525;stop-opacity:0"/></radialGradient><path opacity=".5" fill="url(#e)" enable-background="new" d="M211 212.4c0 .6.2 1.3.5 1.8.4.5.9.9 1.4 1.2.6.2 1.2.3 1.9.2.6-.1 1.2-.4 1.7-.9s.8-1 .9-1.6c.1-.6.1-1.3-.2-1.9-.2-.6-.7-1.1-1.2-1.4-.5-.4-1.2-.5-1.8-.5-.9 0-1.7.3-2.3.9-.6.5-.9 1.3-.9 2.2z"/><radialGradient id="f" cx="128.424" cy="162.934" r="1" gradientTransform="matrix(-9.3369 0 0 9.3369 1295.054 -755.322)" gradientUnits="userSpaceOnUse"><stop offset="0" style="stop-color:#fff"/><stop offset=".05" style="stop-color:#fff;stop-opacity:.88"/><stop offset=".15" style="stop-color:#fff;stop-opacity:.68"/><stop offset=".26" style="stop-color:#fff;stop-opacity:.5"/><stop offset=".37" style="stop-color:#fff;stop-opacity:.34"/><stop offset=".48" style="stop-color:#fff;stop-opacity:.22"/><stop offset=".6" style="stop-color:#fff;stop-opacity:.12"/><stop offset=".72" style="stop-color:#fff;stop-opacity:5.000000e-02"/><stop offset=".85" style="stop-color:#fff;stop-opacity:1.000000e-02"/><stop offset="1" style="stop-color:#272525;stop-opacity:0"/></radialGradient><path opacity=".5" fill="url(#f)" enable-background="new" d="M250.8 138.7c0 .3.1.6.3.9.2.3.4.5.7.6.3.1.6.2.9.1.3-.1.6-.2.8-.4.2-.2.4-.5.4-.8.1-.3 0-.6-.1-.9s-.3-.5-.6-.7c-.3-.2-.6-.3-.9-.3-.2 0-.4 0-.6.1-.2.1-.4.2-.5.4-.1.1-.3.3-.3.5-.1 0-.1.2-.1.5z"/><path fill="#FFF" d="m252.4 136.3-.2 2.3h.3l-.1-2.3zM252.4 141l.1-2.3h-.3l.2 2.3z"/><path fill="#FFF" d="m250 138.6 2.3.1v-.3l-2.3.2zM254.7 138.6l-2.3-.1v.3l2.3-.2z"/><radialGradient id="g" cx="128.424" cy="162.934" r="1" gradientTransform="matrix(-9.3369 0 0 9.3369 714.161 16.757)" gradientUnits="userSpaceOnUse"><stop offset="0" style="stop-color:#fff"/><stop offset=".05" style="stop-color:#fff;stop-opacity:.88"/><stop offset=".15" style="stop-color:#fff;stop-opacity:.68"/><stop offset=".26" style="stop-color:#fff;stop-opacity:.5"/><stop offset=".37" style="stop-color:#fff;stop-opacity:.34"/><stop offset=".48" style="stop-color:#fff;stop-opacity:.22"/><stop offset=".6" style="stop-color:#fff;stop-opacity:.12"/><stop offset=".72" style="stop-color:#fff;stop-opacity:5.000000e-02"/><stop offset=".85" style="stop-color:#fff;stop-opacity:1.000000e-02"/><stop offset="1" style="stop-color:#272525;stop-opacity:0"/></radialGradient><path opacity=".5" fill="url(#g)" enable-background="new" d="M165.1 252.5c0 .3.1.6.3.9.2.3.4.5.7.6.3.1.6.2.9.1.3-.1.6-.2.8-.4s.4-.5.4-.8c.1-.3 0-.6-.1-.9-.1-.3-.3-.5-.6-.7-.3-.2-.6-.3-.9-.3-.4 0-.8.2-1.1.5-.3.2-.4.6-.4 1z"/><path fill="#FFF" d="m166.7 250.2-.1 2.3h.3l-.2-2.3zM166.7 254.8l.1-2.3h-.3l.2 2.3z"/><path fill="#FFF" d="m164.4 252.5 2.3.1v-.3l-2.3.2z"/><path fill="#FFF" d="m169 252.5-2.3-.1v.3l2.3-.2z"/><radialGradient id="h" cx="128.424" cy="162.934" r="1" gradientTransform="matrix(-9.3369 0 0 9.3368 249.165 67.66)" gradientUnits="userSpaceOnUse"><stop offset="0" style="stop-color:#fff"/><stop offset=".05" style="stop-color:#fff;stop-opacity:.88"/><stop offset=".15" style="stop-color:#fff;stop-opacity:.68"/><stop offset=".26" style="stop-color:#fff;stop-opacity:.5"/><stop offset=".37" style="stop-color:#fff;stop-opacity:.34"/><stop offset=".48" style="stop-color:#fff;stop-opacity:.22"/><stop offset=".6" style="stop-color:#fff;stop-opacity:.12"/><stop offset=".72" style="stop-color:#fff;stop-opacity:5.000000e-02"/><stop offset=".85" style="stop-color:#fff;stop-opacity:1.000000e-02"/><stop offset="1" style="stop-color:#272525;stop-opacity:0"/></radialGradient><path opacity=".5" fill="url(#h)" enable-background="new" d="M96.5 260c0 .3.1.6.3.9.2.3.4.5.7.6.3.1.6.2.9.1.3-.1.6-.2.8-.4.2-.2.4-.5.4-.8.1-.3 0-.6-.1-.9-.1-.3-.3-.5-.6-.7-.3-.2-.6-.3-.9-.3-.2 0-.4 0-.6.1-.2.1-.4.2-.5.4-.2.2-.3.3-.3.5-.1.1-.1.3-.1.5z"/><path fill="#FFF" d="M98.1 257.7 98 260h.3l-.2-2.3zM98.1 262.3l.1-2.3h-.3l.2 2.3z"/><path fill="#FFF" d="m95.8 260 2.3.1v-.3l-2.3.2zM100.4 260l-2.3-.1v.3l2.3-.2z"/><radialGradient id="i" cx="119.133" cy="172.705" r="1" gradientTransform="matrix(-37.0251 0 0 37.0249 1717.902 -4082.602)" gradientUnits="userSpaceOnUse"><stop offset="0" style="stop-color:#fff"/><stop offset=".05" style="stop-color:#fff;stop-opacity:.88"/><stop offset=".15" style="stop-color:#fff;stop-opacity:.68"/><stop offset=".26" style="stop-color:#fff;stop-opacity:.5"/><stop offset=".37" style="stop-color:#fff;stop-opacity:.34"/><stop offset=".48" style="stop-color:#fff;stop-opacity:.22"/><stop offset=".6" style="stop-color:#fff;stop-opacity:.12"/><stop offset=".72" style="stop-color:#fff;stop-opacity:5.000000e-02"/><stop offset=".85" style="stop-color:#fff;stop-opacity:1.000000e-02"/><stop offset="1" style="stop-color:#272525;stop-opacity:0"/></radialGradient><path opacity=".5" fill="url(#i)" enable-background="new" d="M38.8 212.4c0 .6.2 1.3.5 1.8.4.5.9.9 1.4 1.2.6.2 1.2.3 1.9.2.6-.1 1.2-.4 1.6-.9.5-.5.8-1 .9-1.7.1-.6.1-1.3-.2-1.9-.2-.6-.7-1.1-1.2-1.4-.5-.4-1.2-.5-1.8-.5-.9 0-1.7.3-2.3.9-.5.6-.8 1.4-.8 2.3z"/><path fill="#FFF" d="M31.5 232.4s0 .1 0 0l.1.1h.1v-.2h-.2v.1c0-.1 0-.1 0 0 0-.1 0 0 0 0zM53.5 243.6l.1.1h.2v-.2h-.1c-.1-.1-.1-.1-.2.1 0-.1 0-.1 0 0zM22.2 227.7s0 .1 0 0l.1.1h.1v-.2h-.1s-.1 0-.1.1c0-.1 0 0 0 0zM27.1 215.6s.1 0 0 0l.1.1h.1v-.2h-.2c.1 0 .1 0 0 .1.1-.1.1-.1 0 0 0-.1 0 0 0 0zM251.8 169.8l.1.1h.1v-.2h-.2v.1c0-.1 0-.1 0 0 0-.1 0-.1 0 0zM253.9 159.3c0 .1 0 .1 0 0 0 .1 0 .1 0 0 0 .1.1.1.1.1h.2v-.2h-.1c-.1 0-.2 0-.2.1zM240 150.4l.1.1h.1v-.2h-.2v.1c0-.1 0-.1 0 0 0-.1 0-.1 0 0zM240.1 189.9c0 .1 0 .1 0 0l.1.1h.1v-.2h-.2c.1 0 0 0 0 .1zM235.9 206.3c0 .1 0 .1 0 0 0 .1.1.1.1.1h.2v-.2l-.1-.1h-.1c0 .1-.1.1-.1.2zM225.3 197.1c0 .1 0 .1 0 0 0 .1 0 .1 0 0l.1.1h.2v-.2h-.1c-.1 0-.2 0-.2.1zM200.8 227.4s0 .1 0 0c0 .1 0 .1 0 0 0 .1.1.1.1.1h.1v-.2h-.1c-.1 0-.1 0-.1.1 0-.1 0 0 0 0zM190.5 241.2c0 .1 0 .1 0 0 0 .1 0 .1 0 0l.1.1h.1v-.2h-.1l-.1.1zM195.5 237.1s0 .1 0 0l.1.1h.1v-.2h-.1c-.1 0-.1 0-.1.1 0-.1 0-.1 0 0zM188.6 247.8s0 .1 0 0c0 .1.1.1.1.1h.2v-.2h-.1c-.1 0-.1 0-.2.1 0-.1 0-.1 0 0zM183.3 243.4s0 .1 0 0c0 .1 0 .1 0 0 0 .1.1.1.1.1h.1v-.2h-.1l-.1.1c0-.1 0 0 0 0zM210 236.8s0 .1 0 0c0 .1 0 .1 0 0 0 .1.1.1.1.1h.2v-.2h-.1c-.1 0-.2 0-.2.1zM197.5 241.5c0 .1 0 .1 0 0l.1.1h.2v-.2h-.2c-.1 0-.1 0-.1.1 0-.1 0-.1 0 0zM203.7 242.4s0 .1 0 0v.1h.2V242.2h-.1c0 .1 0 .1-.1.2zM207.1 228.4s0 .1 0 0c0 .1 0 .1 0 0 0 .1.1.1.1.1h.2v-.2h-.1c-.1 0-.1 0-.2.1zM179.7 251.3c0 .1 0 .1 0 0 0 .1.1.1 0 0 0 .1.1.1.1.1h.2v-.2h-.1c-.1 0-.1 0-.2.1.1 0 .1 0 0 0zM171.2 242.6c.1 0 .1 0 0 0 0 .1.1.1.1.1h.2v-.2h-.1c-.1-.1-.1-.1-.2.1.1-.1 0-.1 0 0zM150.4 247.6c0 .1 0 .1 0 0 0 .1 0 .1 0 0 0 .1.1.1.1.1h.1v-.2h-.2c.1 0 0 0 0 .1zM161.4 243.7c.1.1.1.1 0 0 0 .1.1.1.1.1h.2v-.1h-.1c-.1-.1-.1-.1-.2 0 .1-.1 0 0 0 0zM159.5 259.4c0 .1 0 .1 0 0 0 .1.1.1 0 0l.1.1h.2v-.2h-.1c-.1 0-.1 0-.2.1zM145.5 256.9c0 .1 0 .1 0 0l.1.1h.1v-.2h-.1l-.1.1zM130.4 265.5c0 .1 0 .1 0 0 0 .1.1.1.1.1h.1v-.2h-.1c-.1 0-.1 0-.1.1 0-.1 0-.1 0 0zM120.7 259.6c0 .1.1.1.1.1h.1v-.2h-.2c-.1 0 0 0 0 .1 0-.1 0-.1 0 0 0-.1 0 0 0 0zM66.2 240.2c0 .1 0 .1 0 0 .1.1.1.1.1 0s-.1-.1-.1 0c0-.1 0-.1 0 0zM52 233.9s0 .1 0 0c.1.1.1.1.1 0s-.1-.1-.1 0c0-.1 0-.1 0 0zM40.7 223.4c0 .1.1.1 0 0 .1.1.1.1.1 0s0-.1-.1 0c.1-.1 0-.1 0 0zM30.3 209.3c.1 0 .1 0 0 0 .1.1.1.1.1 0s0-.1-.1 0c.1-.1.1-.1 0 0 0-.1 0-.1 0 0zM38.7 204.7c.1 0 .1.1 0 0 .1.1.1.1.1 0s0-.1-.1 0c.1-.1.1-.1 0 0zM18 207.7s0 .1 0 0l.1.1h.1v-.2h-.1s-.1 0-.1.1c0-.1 0-.1 0 0zM22 220.4c0 .1 0 .1 0 0 0 .1.1.1 0 0 0 .1.1.1.1.1h.2v-.2h-.2l-.1.1c.1 0 0 0 0 0zM59.6 233.1c0 .1 0 .1 0 0 0 .1.1.1.1.1h.2v-.2h-.2l-.1.1c0-.1 0-.1 0 0zM48.3 224.1l.1.1h.1v-.1h-.1c-.1-.2-.1-.1-.1 0 0-.1 0-.1 0 0 0-.1 0-.1 0 0zM234.9 174.2c0 .1 0 .2.1.3.1.1.2.1.3.1h.2c.1 0 .1-.1.1-.1l.1-.1v-.2c0-.1 0-.2-.1-.3-.1-.1-.2-.1-.3-.1h-.2s-.1 0-.1.1l-.1.1v.2zM152 262.2c0 .1 0 .2.1.3.1.1.2.1.3.1h.2s.1 0 .1-.1l.1-.1v-.2c0-.1 0-.2-.1-.3-.1-.1-.2-.1-.3-.1h-.2s-.1 0-.1.1l-.1.1v.2zM239 178c0 .1 0 .1.1.2l.1.1h.2c.1 0 .1 0 .2-.1 0 0 .1-.1.1-.2v-.2c0-.1-.1-.1-.1-.1-.1 0-.1-.1-.2-.1h-.1s-.1 0-.1.1c0 0 0 .1-.1.1-.1.1-.1.1-.1.2zM243.4 169.4v.2c0 .1.1.1.1.1h.2c.1 0 .1 0 .2-.1 0 0 .1-.1.1-.2v-.2c0-.1-.1-.1-.1-.1s-.1-.1-.2-.1-.2 0-.2.1c-.1.2-.1.3-.1.3zM245.1 150.4c0 .1 0 .1.1.2 0 .1.1.1.1.1h.2c.1 0 .1 0 .2-.1 0 0 .1-.1.1-.2v-.2c0-.1-.1-.1-.1-.1h-.2c-.1 0-.2 0-.2.1-.2 0-.2.1-.2.2zM225.4 195.5c0 .1 0 .2.1.3.1.1.2.1.3.1s.2 0 .3-.1c.1-.1.1-.2.1-.3 0-.1 0-.2-.1-.3-.1-.1-.2-.1-.3-.1s-.2 0-.3.1c-.1.1-.1.2-.1.3zM243.5 161.4c0 .1 0 .3.1.4l.3.3c.1.1.3.1.4 0 .1 0 .3-.1.4-.2.1-.1.2-.2.2-.4v-.4c-.1-.1-.2-.3-.3-.3-.1-.1-.3-.1-.4-.1-.2 0-.4.1-.5.2-.1.1-.2.3-.2.5z"/></g><path fill="#FFD2BC" d="M177.2 55.1c-3.7 4.5-9.5 11.6-9.5 11.6L158.6 54l6.2-6c.7-4.7.5-10 2-14.5 1.8-5.3 12.8-5.1 15.7-1 .8 1.2 1.2 2.8 1 4.3-.4 5.7-.4 11.7-1.8 17.2.1.1-3.1 1.2-4.5 1.1z"/><path fill="none" stroke="#232639" stroke-width=".275" stroke-miterlimit="10" d="m183.3 42.3-6.8.7-.7 2.2-2.2.7"/><path fill="#101738" d="M168.9 65.7s4.4-5.7 8.3-10.6l-2.9-1.1 1.3 1.5-6.7 10.2zM184.3 31.4s-5.1-2-8.6-2.2c-3-.1-7 .6-7.6 1-.6.4-.6 2.4-.6 2.4-4.6 0-4 3.6-4 5.5 0 4.5.5 10.8.5 10.8l6.1 4.2 1.1-4.2s-2.3-.1-2.4-1.8c-.2-2.3.8-3.6 2.7-3.2 1.3.3 1.5 2.8 1.5 2.8s.9-.7 1.3-1.3c.5-.8.1-4.8-.2-6.7-.1-.7.3-1.3.9-1.5 1.6-.5 4.8-1.6 8.4-2.4.9-.2.9-3.4.9-3.4z"/><path fill="none" stroke="#101738" stroke-width=".137" d="M167.5 32.6c-4.6 0-4 3.6-4 5.5 0 4.5.5 10.8.5 10.8l6.1 4.2 1.1-4.2s-2.3-.1-2.4-1.8c-.2-2.3.8-3.6 2.7-3.2 1.3.3 1.5 2.8 1.5 2.8s.9-.7 1.3-1.3c.5-.8.1-4.8-.2-6.7-.1-.7.3-1.3.9-1.5 1.6-.5 4.8-1.6 8.4-2.4 1.1-.3 1.1-3.5 1.1-3.5s-5.1-2-8.6-2.2c-3-.1-7 .6-7.6 1-.7.6-.8 2.5-.8 2.5zm0 0c.4.4 1.2 1.1 1.6 1.2"/><path fill="#FFD2BC" d="M170.4 49.3c1.5.4 2.9-.5 3.2-2 .3-1.5-.6-3-2.1-3.4-1.5-.4-2.9.5-3.2 2-.3 1.5.6 3 2.1 3.4z"/><path fill="none" stroke="#101738" stroke-width=".275" stroke-linecap="round" stroke-linejoin="round" d="M170.6 45.8v1.3l.8.3"/><path fill="#12785F" d="M175.1 57.8c-1.6-.5-9.1-5.8-11.3-8.8l-9 6.3c3.8 3.8 13.6 11.7 16.3 13.2 0 0 4.4-10.6 4-10.7z"/><path fill="none" d="M175.1 57.8c-1.6-.5-9.1-5.8-11.3-8.8l-9 6.3c3.8 3.8 13.6 11.7 16.3 13.2 0 0 4.4-10.6 4-10.7z"/><linearGradient id="j" gradientUnits="userSpaceOnUse" x1="168.172" y1="260.832" x2="161.964" y2="234.896" gradientTransform="matrix(1 0 0 -1 0 304)"><stop offset="0" style="stop-color:#12785f"/><stop offset=".854" style="stop-color:#12785f;stop-opacity:0"/></linearGradient><path fill="url(#j)" d="M175.1 57.8c-1.6-.5-9.1-5.8-11.3-8.8l-9 6.3c3.8 3.8 13.6 11.7 16.3 13.2 0 0 4.4-10.6 4-10.7z"/><linearGradient id="k" gradientUnits="userSpaceOnUse" x1="364.061" y1="295.094" x2="329.723" y2="302.426" gradientTransform="scale(1 -1) rotate(62.451 540.073 -11.878)"><stop offset="0" style="stop-color:#fff;stop-opacity:.45"/><stop offset="1" style="stop-color:#fff;stop-opacity:.45"/></linearGradient><circle fill="url(#k)" cx="173.3" cy="41.9" r="18.8"/><path fill="#12785F" d="M203.4 135.9c-1-1.3-32.1-13.8-47.1-17.9l-15.4 30.8 33.8-2.1-12.3 14.6-1.4 1.7-.8 1.7-24.2 27.9 21.1 17.9 14.3.8-10-7.1-5.4-12.9c6.1-4.9 15.8-13.1 24.2-20 .7-.6 1.7-.3 2.3-.8.7-.6 1.3-1.1 2-1.7 11.1-9.2 20.9-17.7 22.3-20 3.3-5.4-2.1-11.2-3.4-12.9z"/><path fill="none" d="M203.4 135.9c-1-1.3-32.1-13.8-47.1-17.9l-15.4 30.8 33.8-2.1-12.3 14.6-1.4 1.7-.8 1.7-24.2 27.9 21.1 17.9 14.3.8-10-7.1-5.4-12.9c6.1-4.9 15.8-13.1 24.2-20 .7-.6 1.7-.3 2.3-.8.7-.6 1.3-1.1 2-1.7 11.1-9.2 20.9-17.7 22.3-20 3.3-5.4-2.1-11.2-3.4-12.9z"/><linearGradient id="l" gradientUnits="userSpaceOnUse" x1="199.114" y1="162.965" x2="154.947" y2="133.381" gradientTransform="matrix(1 0 0 -1 0 304)"><stop offset="0" style="stop-color:#12785f"/><stop offset="1" style="stop-color:#12785f;stop-opacity:0"/></linearGradient><path fill="url(#l)" d="M203.4 135.9c-1-1.3-32.1-13.8-47.1-17.9l-15.4 30.8 33.8-2.1-12.3 14.6-1.4 1.7-.8 1.7-24.2 27.9 21.1 17.9 14.3.8-10-7.1-5.4-12.9c6.1-4.9 15.8-13.1 24.2-20 .7-.6 1.7-.3 2.3-.8.7-.6 1.3-1.1 2-1.7 11.1-9.2 20.9-17.7 22.3-20 3.3-5.4-2.1-11.2-3.4-12.9z"/><defs><filter id="m" filterUnits="userSpaceOnUse" x="199" y="141" width="15" height="15"><feColorMatrix values="1 0 0 0 0 0 1 0 0 0 0 0 1 0 0 0 0 0 1 0"/></filter></defs><mask maskUnits="userSpaceOnUse" x="199" y="141" width="15" height="15" id="o"><path fill="#12785F" filter="url(#m)" d="M203.4 135.9c-1-1.3-32.1-13.8-47.1-17.9l-15.4 30.8 33.8-2.1-12.3 14.6-1.4 1.7-.8 1.7-24.2 27.9 21.1 17.9 14.3.8-10-7.1-5.4-12.9c6.1-4.9 15.8-13.1 24.2-20 .7-.6 1.7-.3 2.3-.8.7-.6 1.3-1.1 2-1.7 11.1-9.2 20.9-17.7 22.3-20 3.3-5.4-2.1-11.2-3.4-12.9z"/><path fill="none" d="M203.4 135.9c-1-1.3-32.1-13.8-47.1-17.9l-15.4 30.8 33.8-2.1-12.3 14.6-1.4 1.7-.8 1.7-24.2 27.9 21.1 17.9 14.3.8-10-7.1-5.4-12.9c6.1-4.9 15.8-13.1 24.2-20 .7-.6 1.7-.3 2.3-.8.7-.6 1.3-1.1 2-1.7 11.1-9.2 20.9-17.7 22.3-20 3.3-5.4-2.1-11.2-3.4-12.9z"/><linearGradient id="n" gradientUnits="userSpaceOnUse" x1="199.114" y1="162.965" x2="154.947" y2="133.381" gradientTransform="matrix(1 0 0 -1 0 304)"><stop offset="0" style="stop-color:#12785f"/><stop offset="1" style="stop-color:#12785f;stop-opacity:0"/></linearGradient><path fill="url(#n)" d="M203.4 135.9c-1-1.3-32.1-13.8-47.1-17.9l-15.4 30.8 33.8-2.1-12.3 14.6-1.4 1.7-.8 1.7-24.2 27.9 21.1 17.9 14.3.8-10-7.1-5.4-12.9c6.1-4.9 15.8-13.1 24.2-20 .7-.6 1.7-.3 2.3-.8.7-.6 1.3-1.1 2-1.7 11.1-9.2 20.9-17.7 22.3-20 3.3-5.4-2.1-11.2-3.4-12.9z"/></mask><g mask="url(#o)"><circle fill="#101738" cx="206.5" cy="148.5" r="7.5"/></g><path fill="none" stroke="#101738" stroke-width=".25" d="M203.4 135.9c1.2 1.7 6.7 7.5 3.3 12.9-1.4 2.3-11.2 10.8-22.3 20-.7.6-1.3 1.1-2 1.7-.7.6-1.7.3-2.3.8-8.4 6.9-18 15.1-24.2 20l5.4 12.9 10 7.1-14.2-.4-21.2-18.3 24.2-27.9.8-1.7 1.4-1.7 12.3-14.6 9.8-1.2"/><path fill="#101738" d="m161.5 204-5.2-12.2c6.9-5.5 13.9-12.1 23.2-19.8l-19.5-7.5-24.5 28L157 211l15 .5-10.5-7.5z"/><path fill="#12785F" d="m157 211 15 .5-1.4-1-13.1-.5-21.1-18.5-.9 1L157 211zM118.4 116.8c1.2-1.7 6.2-8.8 10-12.1l29.2 13.8c-3.5 8.5-10.8 26.4-12.1 28.8-.9 1.7-14 21.5-23.7 34.6-4 5.3-7.4 9.5-9.2 10.8-2.3 1.7-10.8 5.5-20.8 9.6-.3.1-.5 1.3-1.2 1.2-.3 0-1.1-.4-1.2-.3-16.3 6.6-35 13.6-35 13.6l-5.4 7.1v20.8l-11-9.6v-30.4l13.3.4 23.5-14.6c6.9-5.7 15.9-9.8 23.5-14.6 5-13.6 17.9-40.4 17.9-45.4.1-3.3 1-12.1 2.2-13.7z"/><path fill="none" d="M118.4 116.8c1.2-1.7 6.2-8.8 10-12.1l29.2 13.8c-3.5 8.5-10.8 26.4-12.1 28.8-.9 1.7-14 21.5-23.7 34.6-4 5.3-7.4 9.5-9.2 10.8-2.3 1.7-10.8 5.5-20.8 9.6-.3.1-.5 1.3-1.2 1.2-.3 0-1.1-.4-1.2-.3-16.3 6.6-35 13.6-35 13.6l-5.4 7.1v20.8l-11-9.6v-30.4l13.3.4 23.5-14.6c6.9-5.7 15.9-9.8 23.5-14.6 5-13.6 17.9-40.4 17.9-45.4.1-3.3 1-12.1 2.2-13.7z"/><linearGradient id="p" gradientUnits="userSpaceOnUse" x1="101.08" y1="194.519" x2="93.58" y2="75.769" gradientTransform="matrix(1 0 0 -1 0 304)"><stop offset="0" style="stop-color:#12785f"/><stop offset="1" style="stop-color:#12785f;stop-opacity:0"/></linearGradient><path fill="url(#p)" d="M118.4 116.8c1.2-1.7 6.2-8.8 10-12.1l29.2 13.8c-3.5 8.5-10.8 26.4-12.1 28.8-.9 1.7-14 21.5-23.7 34.6-4 5.3-7.4 9.5-9.2 10.8-2.3 1.7-10.8 5.5-20.8 9.6-.3.1-.5 1.3-1.2 1.2-.3 0-1.1-.4-1.2-.3-16.3 6.6-35 13.6-35 13.6l-5.4 7.1v20.8l-11-9.6v-30.4l13.3.4 23.5-14.6c6.9-5.7 15.9-9.8 23.5-14.6 5-13.6 17.9-40.4 17.9-45.4.1-3.3 1-12.1 2.2-13.7z"/><defs><filter id="q" filterUnits="userSpaceOnUse" x="109" y="179" width="15" height="15"><feColorMatrix values="1 0 0 0 0 0 1 0 0 0 0 0 1 0 0 0 0 0 1 0"/></filter></defs><mask maskUnits="userSpaceOnUse" x="109" y="179" width="15" height="15" id="s"><path fill="#12785F" filter="url(#q)" d="M118.4 116.8c1.2-1.7 6.2-8.8 10-12.1l29.2 13.8c-3.5 8.5-10.8 26.4-12.1 28.8-.9 1.7-14 21.5-23.7 34.6-4 5.3-7.4 9.5-9.2 10.8-2.3 1.7-10.8 5.5-20.8 9.6-.3.1-.5 1.3-1.2 1.2-.3 0-1.1-.4-1.2-.3-16.3 6.6-35 13.6-35 13.6l-5.4 7.1v20.8l-11-9.6v-30.4l13.3.4 23.5-14.6c6.9-5.7 15.9-9.8 23.5-14.6 5-13.6 17.9-40.4 17.9-45.4.1-3.3 1-12.1 2.2-13.7z"/><path fill="none" d="M118.4 116.8c1.2-1.7 6.2-8.8 10-12.1l29.2 13.8c-3.5 8.5-10.8 26.4-12.1 28.8-.9 1.7-14 21.5-23.7 34.6-4 5.3-7.4 9.5-9.2 10.8-2.3 1.7-10.8 5.5-20.8 9.6-.3.1-.5 1.3-1.2 1.2-.3 0-1.1-.4-1.2-.3-16.3 6.6-35 13.6-35 13.6l-5.4 7.1v20.8l-11-9.6v-30.4l13.3.4 23.5-14.6c6.9-5.7 15.9-9.8 23.5-14.6 5-13.6 17.9-40.4 17.9-45.4.1-3.3 1-12.1 2.2-13.7z"/><linearGradient id="r" gradientUnits="userSpaceOnUse" x1="101.08" y1="194.519" x2="93.58" y2="75.769" gradientTransform="matrix(1 0 0 -1 0 304)"><stop offset="0" style="stop-color:#12785f"/><stop offset="1" style="stop-color:#12785f;stop-opacity:0"/></linearGradient><path fill="url(#r)" d="M118.4 116.8c1.2-1.7 6.2-8.8 10-12.1l29.2 13.8c-3.5 8.5-10.8 26.4-12.1 28.8-.9 1.7-14 21.5-23.7 34.6-4 5.3-7.4 9.5-9.2 10.8-2.3 1.7-10.8 5.5-20.8 9.6-.3.1-.5 1.3-1.2 1.2-.3 0-1.1-.4-1.2-.3-16.3 6.6-35 13.6-35 13.6l-5.4 7.1v20.8l-11-9.6v-30.4l13.3.4 23.5-14.6c6.9-5.7 15.9-9.8 23.5-14.6 5-13.6 17.9-40.4 17.9-45.4.1-3.3 1-12.1 2.2-13.7z"/></mask><g mask="url(#s)"><circle fill="#101738" cx="116.5" cy="186.5" r="7.5"/></g><path fill="none" stroke="#101738" stroke-width=".25" d="M157.6 118.4c-3.5 8.5-10.8 26.4-12.1 28.8-1.3 2.3-26.7 40.8-32.9 45.4-2.3 1.7-10.8 5.5-20.8 9.6-.3.1-.5 1.3-1.2 1.2-.3 0-1.1-.4-1.2-.3-16.3 6.6-35 13.6-35 13.6l-5.4 7.1v20.8l-11-9.5v-30.4l13.3.4 23.5-14.6c6.9-5.7 15.9-9.8 23.5-14.6l4.6 1.2"/><path fill="#101738" d="m38 204.7 13.3.4 23.5-14.6 14.4 12.6c-16.3 6.6-35 13.6-35 13.6l-5.4 7.1v20.8L38 235.1v-30.4z"/><path fill="#12785F" d="M38 235.1v-30.4l1.7.1v31.8l-1.7-1.5z"/><path fill="#101738" d="m128.4 104.7 29.2 13.8-31.3-11.7c.6-.6 1.6-1.7 2.1-2.1z"/><path fill="#FFF" stroke="#101738" stroke-width=".25" stroke-linejoin="round" d="M89.2 93.8c0-.8 6.2-8.3 6.2-8.3l9.2 1.2V88l1.2 5.8v9.6c0 2.1-3.8 2.1-3.8 0v-5.8l-5.4 3.8.8 6.2c-.1.9-1.4 1.1-2.1.4-.7-.7-3-4.6-4.5-7 .2 0-1.6-5.9-1.6-7.2z"/><path fill="#101738" d="M104.7 86.8V88l.6 2.9-9.8-5.4 9.2 1.3z"/><path fill="#12785F" d="m118.8 45.1 37.1 8.8-15 12.5-19.6-4.6-16.2 26.7-10.4-2.9c3.5-9.7 12.3-30.8 15-35.4s5.8-5.5 9.1-5.1z"/><path fill="none" d="m118.8 45.1 37.1 8.8-15 12.5-19.6-4.6-16.2 26.7-10.4-2.9c3.5-9.7 12.3-30.8 15-35.4s5.8-5.5 9.1-5.1z"/><linearGradient id="t" gradientUnits="userSpaceOnUse" x1="135.568" y1="256.713" x2="126.401" y2="241.297" gradientTransform="matrix(1 0 0 -1 0 304)"><stop offset="0" style="stop-color:#12785f"/><stop offset="1" style="stop-color:#12785f;stop-opacity:0"/></linearGradient><path fill="url(#t)" d="m118.8 45.1 37.1 8.8-15 12.5-19.6-4.6-16.2 26.7-10.4-2.9c3.5-9.7 12.3-30.8 15-35.4s5.8-5.5 9.1-5.1z"/><path fill="none" stroke="#000" stroke-width=".25" d="m94.7 85.5 10.4 2.9 16.2-26.7m0 .1 19.6 4.6m-19.6-4.6-5-1.2"/><path fill="#12785F" d="m107.6 84.3-11.4-2.9c.2-.5.4-1.1.6-1.7l11.8 2.9-1 1.7z"/><path fill="#FFF" d="M197.6 72.6v-7.9s0-2.2 1.4-2.5c1.4-.3 1.9 1.8 1.9 1.8v3.2S203 65 203 64c0-2.7.4-9.3.4-9.3s0-1.7 1.2-1.7c1.7 0 1.7 1.7 1.7 1.7v7.5h1.2V56c0-1.5 2.9-2.1 2.9.8v3.8s2.5 3.3 2.5 4.2c0 .8-.1 2.1-.4 4.6-.4 3.8-2.9 12.1-2.9 12.1l-9.2-3.3c-.7-1.4-2.8-4.8-2.8-5.6z"/><path fill="none" stroke="#101738" stroke-width=".25" stroke-linejoin="round" d="M200.9 67.2S203 65 203 64c0-2.7.4-9.3.4-9.3s0-1.7 1.2-1.7c1.7 0 1.7 1.7 1.7 1.7v7.5h1.2V56c0-1.5 2.9-2.1 2.9.8v3.8s2.5 3.3 2.5 4.2c0 .8-.1 2.1-.4 4.6-.4 3.8-2.9 12.1-2.9 12.1l-9.2-3.3c-.8-1.2-2.9-4.6-2.9-5.4v-7.9s0-2.2 1.4-2.5c1.4-.3 1.9 1.8 1.9 1.8v3zm0 0v2.1"/><path fill="#101738" d="m209.7 81.3-9.2-3.3c-.3-.4-.7-1.4-1.1-2l11.3 2.3c-1 2.4-1 3-1 3z"/><path fill="#12785F" d="m188.4 115.1-13.8-18.7L185.5 73c2.7 6.7 6.7 21.3 6.7 21.3l7.9-16.7 10.4 3.8c-2.6 9.2-9.5 30.7-12.5 33.3-3 2.6-8.3 1.5-9.6.4z"/><path fill="none" d="m188.4 115.1-13.8-18.7L185.5 73c2.7 6.7 6.7 21.3 6.7 21.3l7.9-16.7 10.4 3.8c-2.6 9.2-9.5 30.7-12.5 33.3-3 2.6-8.3 1.5-9.6.4z"/><linearGradient id="u" gradientUnits="userSpaceOnUse" x1="192.185" y1="225.787" x2="193.435" y2="192.454" gradientTransform="matrix(1 0 0 -1 0 304)"><stop offset="0" style="stop-color:#12785f"/><stop offset="1" style="stop-color:#12785f;stop-opacity:0"/></linearGradient><path fill="url(#u)" d="m188.4 115.1-13.8-18.7L185.5 73c2.7 6.7 6.7 21.3 6.7 21.3l7.9-16.7 10.4 3.8c-2.6 9.2-9.5 30.7-12.5 33.3-3 2.6-8.3 1.5-9.6.4z"/><path fill="#12785F" d="m209.5 84.7-10.8-4.2.8-1.7 10.6 3.8c-.2.6-.4 1.3-.6 2.1z"/><path fill="none" stroke="#101738" stroke-width=".25" d="m174.7 96.3 13.8 18.7c1.2 1.1 6.6 2.2 9.6-.4m-5.9-20.4 1.7 5.4"/><path fill="#12785F" d="m128 105.1 12.9-38.8L152.2 53l3.8.8s9 4.4 15 8.3c5.7 3.7 13.8 8.8 14.6 10.8l-10.8 23.3-17.1 22.1-29.7-13.2z"/><path fill="none" d="m128 105.1 12.9-38.8L152.2 53l3.8.8s9 4.4 15 8.3c5.7 3.7 13.8 8.8 14.6 10.8l-10.8 23.3-17.1 22.1-29.7-13.2z"/><linearGradient id="v" gradientUnits="userSpaceOnUse" x1="156.75" y1="250.167" x2="156.75" y2="185.583" gradientTransform="matrix(1 0 0 -1 0 304)"><stop offset="0" style="stop-color:#12785f"/><stop offset="1" style="stop-color:#12785f;stop-opacity:0"/></linearGradient><path fill="url(#v)" d="m128 105.1 12.9-38.8L152.2 53l3.8.8s9 4.4 15 8.3c5.7 3.7 13.8 8.8 14.6 10.8l-10.8 23.3-17.1 22.1-29.7-13.2z"/></svg>