<svg fill="none" height="266" viewBox="0 0 266 266" width="266" xmlns="http://www.w3.org/2000/svg" xmlns:xlink="http://www.w3.org/1999/xlink"><linearGradient id="a" gradientUnits="userSpaceOnUse" x1="211.757" x2="64.9947" y1="231.156" y2="38.7886"><stop offset="0" stop-color="#13926e" stop-opacity=".15"/><stop offset="1" stop-color="#ef4921" stop-opacity=".05"/></linearGradient><linearGradient id="b" gradientUnits="userSpaceOnUse" x1="205.121" x2="168.561" y1="77.3841" y2="69.5779"><stop offset="0" stop-color="#fff" stop-opacity=".45"/><stop offset="1" stop-color="#fff" stop-opacity=".45"/></linearGradient><clipPath id="c"><path d="m0 0h266v266h-266z"/></clipPath><mask id="d" height="65" maskUnits="userSpaceOnUse" width="193" x="63" y="142"><path d="m174.925 143.269 51.82 26.626s9.72 5.509 13.366 7.985c3.647 2.476 11.238 8.492 15.206 10.635 0 2.923-3.027 9.509-6.373 12.004-10.387 7.747-30.597 8.792-41.854 1.629-11.007-7.004-39.435-30.268-39.435-30.268l-8.757 4.182s-2.321 2.595-2.89 2.548-1.369-.514-1.369-.514l-41.749 19.936 1.87 6.201c.141.469-.21.942-.7.942h-49.529c-.5602 0-.912-.604-.6355-1.091l.209-.369 28.5687-9.969c8.2178-8.241 27.2418-20.104 43.3628-30.586.439-.285-.501-2.116 1.817-2.648 12.253-7.909 23.547-14.53 24.916-15.577 3.242-2.476 8.758-3.589 12.156-1.666z" fill="#12785f"/></mask><g clip-path="url(#c)"><path d="m90.6678 261.653c-63.4674-15.825-90.812377-72.397-83.51493-131.909 5.43133-44.2942 36.45663-112.5055 94.92013-125.66368 51.498-11.59027 101.934 25.02718 103.3 76.71288.845 31.9608 41.533 30.1718 53.495 63.9398 32.173 90.825-104.733 132.744-168.2002 116.92z" fill="url(#a)"/><path d="m64.6768 174.418c-17.3172 16.372-50.0268-28.544-49.109-82.9446.7697-45.6189 17.9286-81.53123 36.4381-70.6664 31.0801 18.2434 24.4091 79.469 24.4091 79.469s5.5789 57.771-11.7382 74.142z" fill="#101738"/><g fill="#fff"><circle cx="41.25" cy="85.25" r=".25"/><circle cx="57.25" cy="101.25" r=".25"/><circle cx="25.25" cy="101.25" r=".25"/><circle cx="33.25" cy="45.25" r=".25"/><circle cx="57.25" cy="61.25" r=".25"/><circle cx="57.25" cy="137.25" r=".25"/><circle cx="41.25" cy="117.25" r=".25"/><circle cx="49.25" cy="161.25" r=".25"/></g><path d="m65.6178 182.527c-19.2775 18.717-56.99082-31.751-56.88753-93.3225.0866-51.6322 18.85013-92.46039 39.94153-80.3691 35.4154 20.3029 28.9314 89.6615 28.9314 89.6615s7.2921 65.3131-11.9854 84.0301z" stroke="#101738" stroke-width=".292282"/><ellipse cx="218.019" cy="197.989" fill="#101738" fill-opacity=".25" rx="43.8423" ry="14.6141"/><path d="m43.0389 169.289 17.7853 21.001 49.4478-5.384 35.439-3.859 10.596-1.154 77.254-8.412v33.194h-115.251-65.3895c-.3208 0-.6041-.209-.6984-.516l-10.437-33.924c-.1446-.47.2067-.946.6984-.946z" fill="#13926e"/><path d="m233.561 204.675h-120.252" stroke="#101738" stroke-width=".292282"/><path d="m42.5488 168.707 18.2751 21.583 41.4101-4.698 5.301 19.083h-55.1544l-11.3137-35.968z" fill="#101738"/><path d="m41.0669 168.707h1.4819l11.6 35.968h-1.7682z" fill="#13926e"/><path d="m189.188 198.379c.94-6.576-11.998-18.037-15.071-20.551l32.882-3.653 16.544 31.03-82.947-.615s1.462-1.096 12.057-1.826c10.595-.731 35.804.73 36.535-4.385z" fill="#101738"/><path d="m221.296 101.555c-8.086-6.3005-22.34-8.8617-22.34-8.8617l-1.754-.372s-11.14 6.3462-13.609 10.2627c-2.468 3.916 0 45.819 0 45.819 13.678 6.612 33.131 17.534 40.825 22.236 7.693 4.701 27.364 14.821 30.783 18.372 0-5.651-2.015-18.372-2.015-18.372s-9.225-29.331-17.054-47.071c-4.185-9.485-10.863-18.918-14.836-22.013z" fill="#13926e"/><circle cx="211.875" cy="127.91" fill="#101738" r="5.11493"/><path d="m183.593 148.403c13.678 6.612 42.463 17.657 50.157 22.359l-13.141-24.077-24.096-8.918-14.022-34.554z" fill="#101738"/><path d="m168.477 93.8887c-.176-.7851.905-3.4402 1.393-4.1559.489-.7157 1.837-.7813 2.906-.6661 2.69 1.6543 5.926 5.9507 5.926 5.9507l1.601 1.8232 4.248 11.9014c-1.425.646-7.805 1.333-11.194 1.389 0 0-.859-4.415-1.261-6.853-.677-1.009-1.952-4.9649-1.952-4.9649s-1.59-4.0753-1.667-4.4244z" fill="#fff"/><path d="m172.776 89.067c-1.069-.1153-2.417-.0497-2.906.666-.488.7157-1.569 3.3708-1.393 4.156l2.584 6.98m1.715-11.802c.52.5873.991 3.0541 1.18 3.8155.275 1.1123.198 2.9338.198 2.9338m-1.378-6.7493c2.69 1.6543 5.926 5.9507 5.926 5.9507m-7.051-1.1287c.166.7822.475 2.9519 1.462 2.9519.365 0 .73-.0291.843-.2749.112-.2457.198-.7497.198-.7497m-2.503-1.9273s-.268-.6086.718-.7348m-.718.7348s-.402-1.5511-1.096-1.0961m3.599 3.0234c0 .7497.474 2.4976 1.202 2.6193.53.0884.868-.0632 1.104-.4054.237-.3423.232-3.0125.232-3.0125-.051.6338.061 3.4898.534 3.9671.485.4894 1.651.2484 1.651-.6715 0-.5466-.099-2.9027-.175-3.2956m0 0 1.601 1.8232" stroke="#101738" stroke-width=".292282"/><path d="m184.552 108.741c-1.404.647-7.869 1.057-11.206 1.113l-1.143-6.328s8.514 1.283 10.984 1.853c0 0 1.222 2.891 1.365 3.362z" fill="#101738" stroke="#101738" stroke-width=".146141"/><path d="m176.188 150.351 21.513 2.375-13.15-43.985c-1.425.647-8.561.921-11.95.977z" fill="#13926e"/><path d="m174.737 132.648-2.136-22.93h.926" stroke="#101738" stroke-linejoin="round" stroke-width=".292282"/><path d="m188.085 143.207c3.319-1.666 10.822-3.173 13.554-2.711-3.751 2.616-9.132 8.516-9.132 12.338-3.227-1.948-9.287-4.585-10.521-5.524-.521-.396 3.792-2.945 6.099-4.103z" fill="#fff"/><path d="m192.506 152.834c0-3.822 5.382-9.722 9.133-12.338-1.234-.209-3.44-.016-5.795.412-2.321 2.18-6.881 7.268-6.55 10.178 1.181.602 2.308 1.202 3.212 1.748z" fill="#101738"/><path d="m204.899 116.906s2.192-17.2632 8.403-17.9024 13.225 4.7464 16.393 15.3924c3.168 10.645 12.077 38.272 13.029 42.223 1.197 4.966 1.365 9.803-2.751 12.897-3.226 2.426-7.169 2.428-10.278 1.078-14.934-6.485-30.562-14.215-38.182-18.815 1.845-3.846 6.095-12.152 6.095-12.152s14.988 4.041 18.982 5.411c-2.92-8.604-11.691-28.132-11.691-28.132z" fill="#13926e"/><path d="m213.303 99.0036c6.21-.6392 13.224 4.7464 16.392 15.3924 3.169 10.645 12.077 38.272 13.029 42.223 1.197 4.966-.381 11.116-2.751 12.897-2.369 1.782-7.169 2.428-10.278 1.078m-24.796-53.688s8.771 19.528 11.692 28.132l4.417 8.878" stroke="#101738" stroke-width=".292282"/><path d="m174.925 143.269 51.82 26.626s9.72 5.509 13.366 7.985c3.647 2.476 11.238 8.492 15.206 10.635 0 2.923-3.027 9.509-6.373 12.004-10.387 7.747-30.597 8.792-41.854 1.629-11.007-7.004-39.435-30.268-39.435-30.268l-8.757 4.182s-2.321 2.595-2.89 2.548-1.369-.514-1.369-.514l-41.749 19.936 1.87 6.201c.141.469-.21.942-.7.942h-49.4328c-.5808 0-.9295-.645-.6115-1.131l.4542-.694 28.2033-9.604c8.2178-8.241 27.2418-20.104 43.3628-30.586.439-.285-.501-2.116 1.817-2.648 12.253-7.909 23.547-14.53 24.916-15.577 3.242-2.476 8.758-3.589 12.156-1.666z" fill="#13926e"/><g mask="url(#d)"><circle cx="169.199" cy="144.975" fill="#101738" r="5.11493"/></g><path d="m226.744 169.895-51.819-26.626c-3.398-1.923-8.915-.81-12.156 1.666m1.209 22.755c0 1.461 2.451 3.402 3.677 4.19l-8.758 4.182s-2.32 2.595-2.89 2.548c-.569-.047-1.368-.514-1.368-.514" stroke="#101738" stroke-width=".292282"/><path d="m63.2759 203.807 29.3973-10.061c8.2068-8.23 27.3928-20.24 43.5008-30.715 4.368 5.084 13.688 12.905 18.479 15.07l-41.763 19.931 2.132 7.143h-51.7461z" fill="#101738"/><path d="m63.2759 203.807 29.3973-10.061c2.4252-2.432 5.8091-5.194 9.7888-8.149" stroke="#13926e" stroke-width=".292282"/><path d="m63.2759 205.175v-1.368l51.1901-.494.556 1.862z" fill="#13926e"/><path d="m254.945 183.93s-14.614-6.606-24.594-11.921c10.874 6.097 24.358 17.084 24.982 16.995.125-.018-.388-5.074-.388-5.074z" fill="#101738"/><path d="m177.97 94.3239c3.953 4.8238 10.122 12.3521 10.122 12.3521l9.706-13.4882-6.631-6.3692c-.708-5.0458-.549-10.6959-2.171-15.4641-1.922-5.6495-13.647-5.424-16.678-1.1104-.891 1.2677-1.297 2.9659-1.097 4.5926.459 6.0759.434 12.4384 1.868 18.3511 0 0 3.469 1.2208 4.881 1.1361z" fill="#ffd2bc"/><path d="m171.571 80.6256 7.19.7668.768 2.3041 2.304.768" stroke="#232639" stroke-miterlimit="10" stroke-width=".292282"/><path d="m186.839 105.567s-4.636-6.0284-8.869-11.243l3.07-1.1361-1.395 1.6416z" fill="#101738"/><path d="m170.459 69.0405s5.444-2.1781 9.111-2.3307c3.193-.1329 7.464.6172 8.057 1.0882s.687 2.5104.687 2.5104c4.95 0 4.298 3.798 4.298 5.8642 0 4.8321-.56 11.5271-.56 11.5271l-6.524 4.525-1.121-4.525s2.456-.0987 2.599-1.8659c.196-2.4192-.889-3.7946-2.851-3.3875-1.335.2773-1.555 2.9757-1.555 2.9757s-.986-.778-1.375-1.3727c-.567-.8684-.063-5.0762.233-7.1772.099-.6999-.272-1.3628-.909-1.5793-1.677-.5694-5.101-1.6665-8.92-2.5157-1.2-.2668-1.17-3.7366-1.17-3.7366z" fill="#101738"/><path d="m185.275 88.0957c-1.559.4178-3.088-.5251-3.414-2.106s.673-3.2012 2.232-3.619c1.56-.4178 3.088.5251 3.414 2.106.327 1.5809-.673 3.2012-2.232 3.619z" fill="#ffd2bc"/><path d="m185.088 84.4246.014 1.3452-.821.2721" stroke="#101738" stroke-linecap="round" stroke-linejoin="round" stroke-width=".292282"/><path d="m180.235 97.151c3.267-1.0484 11.438-5.9509 12.045-9.3742l6.407 5.0159s1.619 2.1426 0 5.2453c-3.056 5.856-14.193 10.517-14.193 10.517s-4.642-11.2809-4.259-11.404z" fill="#13926e"/><path d="m192.28 87.7768 6.407 5.0159s1.619 2.1426 0 5.2453m-18.452-.887c1-.3209 2.46-1.0031 4.022-1.8934" stroke="#101738" stroke-linejoin="round" stroke-width=".292282"/><circle cx="182.772" cy="76.6799" fill="url(#b)" r="20" transform="matrix(.46254571 -.88659543 .88659543 .46254571 30.247546 203.256762)"/></g></svg>