<svg fill="none" height="266" viewBox="0 0 266 266" width="266" xmlns="http://www.w3.org/2000/svg" xmlns:xlink="http://www.w3.org/1999/xlink"><linearGradient id="a" gradientUnits="userSpaceOnUse" x1="202.426" x2="78.2814" y1="258.546" y2="5.67838"><stop offset="0" stop-color="#13926e" stop-opacity=".15"/><stop offset="1" stop-color="#ef4921" stop-opacity=".05"/></linearGradient><linearGradient id="b" gradientUnits="userSpaceOnUse" x1="133.637" x2="132.714" y1="265.099" y2="118.244"><stop offset="0" stop-color="#101738" stop-opacity=".05"/><stop offset="1" stop-color="#101738" stop-opacity=".35"/></linearGradient><linearGradient id="c" gradientUnits="userSpaceOnUse" x1="80.5545" x2="31.9183" y1="181.669" y2="208.386"><stop offset="0" stop-color="#ef4921" stop-opacity=".65"/><stop offset="1" stop-color="#ef4921" stop-opacity=".05"/></linearGradient><linearGradient id="d" gradientUnits="userSpaceOnUse" x1="87.4509" x2="110.112" y1="109.806" y2="137.503"><stop offset="0" stop-color="#fff" stop-opacity=".45"/><stop offset="1" stop-color="#fff" stop-opacity=".15"/></linearGradient><clipPath id="e"><path d="m0 0h266v266h-266z"/></clipPath><mask id="f" height="264" maskUnits="userSpaceOnUse" width="255" x="8" y="1"><path d="m76.5829 254.481c-60.3669-25.186-78.89591-85.227-62.7343-142.965 12.0288-42.974 52.9564-105.74575 112.7334-109.96483 52.655-3.71636 97.013 40.06763 90.593 91.37123-3.97 31.7246 36.525 36.0726 43.274 71.2556 18.153 94.629-123.499 115.489-183.8661 90.303z" fill="#ebedf0"/></mask><g clip-path="url(#e)"><path d="m76.5829 254.834c-60.3669-25.186-78.89591-85.226-62.7343-142.965 12.0288-42.9737 52.9564-105.74547 112.7334-109.96456 52.655-3.71636 97.013 40.06756 90.593 91.37116-3.97 31.7254 36.525 36.0724 43.274 71.2554 18.153 94.63-123.499 115.49-183.8661 90.303z" fill="url(#a)"/><g mask="url(#f)"><path d="m133.637 284.272c102.833 0 186.195-44.071 186.195-98.436 0-54.364-83.362-98.4349-186.195-98.4349-102.8324 0-186.1946 44.0709-186.1946 98.4349 0 54.365 83.3622 98.436 186.1946 98.436z" fill="url(#b)"/><g fill="#101738" fill-opacity=".25"><ellipse cx="164.33" cy="154.899" rx="4.42443" ry=".737404"/><ellipse cx="170.201" cy="194.734" rx="7.37404" ry="2.21221"/><ellipse cx="160.634" cy="175.551" rx="5.89923" ry="1.47481"/><ellipse cx="170.966" cy="142.363" rx="2.94962" ry=".737404"/></g><path d="m99.2582 264.113c-10.2843 8.658-52.3552-5.072-71.1598-23.748-22.39934-22.246-27.664061-46.971-21.85844-57.619 6.48784-11.901 41.77904-16.368 69.50154 4.77s37.2615 58.57 23.5167 76.597z" fill="#fbf3f0"/><path d="m97.3127 228.754c-1.4094 2.089-3.7441 3.418-6.7705 4.026-3.0269.608-6.7406.493-10.8966-.301-8.3118-1.588-18.3784-5.89-28.227-12.533-9.8487-6.643-17.6089-14.365-22.195-21.477-2.2931-3.556-3.7907-6.956-4.3609-9.99s-.2126-5.697 1.1968-7.786c1.4094-2.09 3.7441-3.419 6.7705-4.026 3.0269-.608 6.7406-.494 10.8966.3 8.3118 1.589 18.3784 5.891 28.2271 12.534 9.8486 6.643 17.6088 14.365 22.1949 21.476 2.2931 3.556 3.7907 6.957 4.3609 9.991s.2126 5.696-1.1968 7.786z" fill="#0b0c0d" stroke="#0b0c0d" stroke-width=".147481"/><path d="m77.221 234.864c-38.2478-9.194-60.6515-43.691-52.5401-53.462 8.1114-9.77 31.7722-6.046 54.51 10.147 8.8106 6.274 15.2215 15.512 38.3001 21.96 23.08 6.449 80.544-17.021 89.098-11.607 8.554 5.413-45.518 17.869-63.903 27.198-13.013 6.603-40.479 11.77-65.465 5.764z" fill="#101738" fill-opacity=".25"/><path d="m103.372 265.274c-15.5149-2.448-39.9331-5.018-69.4823-30.137-29.54919-25.12-31.30178-54.013-29.60238-56.164 10.01098-12.671 51.34088-20.955 84.69638 7.563 33.3553 28.518 20.1483 68.864 14.3883 78.738z" fill="url(#c)"/><path clip-rule="evenodd" d="m49.2676 189.143c1.0571-.706 2.4431-.672 3.4646.084l8.8649 6.561-1.3787 1.863-8.8649-6.561c-.2358-.174-.5556-.182-.7996-.019l-6.4425 4.298c-.3864.258-.4162.815-.0595 1.113l10.0424 8.376-1.4846 1.78-10.0423-8.377c-1.5458-1.289-1.4168-3.702.2577-4.82z" fill="#fff" fill-rule="evenodd"/><path d="m49.2678 189.143c1.0571-.705 2.4432-.672 3.4647.084l8.8648 6.561m-11.0431-4.717-6.4426 4.298c-.3864.258-.4162.815-.0594 1.113" stroke="#0b0c0d" stroke-width=".294962"/><path d="m43.7998 198.319 10.0424 8.376-1.2321-.057-10.0423-8.377c-1.5458-1.289-1.4168-3.702.2577-4.82-1.4092.941-1.3222 2.844.9743 4.878z" fill="#0b0c0d"/><path d="m50.4903 203.087s8.8382-8.907 9.5523-9.468c.714-.561 2.2055-.209 2.7714.182.7074.489 12.7529 10.311 13.9812 11.459.9827.917 1.1821 2.472 1.1589 3.135-1.243 4.001-3.6135 12.16-4.0756 12.911-.5776.94-2.0081.876-2.6542.891-1.4159.033-2.9355-.149-3.3682-.463-3.2781-2.381-16.2864-13.127-17.2067-14.037-1.1504-1.139-.9552-2.559-.8705-3.175.0679-.494.5025-1.162.7114-1.435z" fill="#fff"/><path d="m51.7675 206.669c-1.1703-.976-1.2483-2.943-1.277-3.581-.2089.272-.6435.941-.7114 1.434-.0847.616-.2799 2.037.8705 3.175.9203.91 13.9286 11.656 17.2067 14.037.4327.315 1.9523.496 3.3682.463-.565.013-17.9941-14.308-19.457-15.528z" fill="#0b0c0d" stroke="#0b0c0d" stroke-width=".147481"/><path d="m60.3843 202.04c-.785 1.011-.274 2.722 1.1415 3.821.9619.747 2.094 1.019 2.9671.799l6.0674 5.574.9697-3.022-5.6517-4.338c-.0044-.9-.5486-1.928-1.5097-2.675-1.4155-1.099-3.1993-1.17-3.9843-.159z" fill="#ef4921"/><path d="m60.3843 202.04c.785-1.011 2.5688-.94 3.9843.159.9611.747 1.5053 1.775 1.5097 2.675m-1.3854 1.786 6.0674 5.574" stroke="#1a1a1a" stroke-width=".294962"/></g><path d="m155.856 102.07s15.367 18.402 24.821 26.711l19.485-11.233c8.385-5.135 26.453-15.594 32.096-18.8534 1.12-.647 1.99-1.6389 2.489-2.8325l8.239-19.7079-.365-1.5552s7.887-27.8271 9.38-33.1566c0 0 12.686-17.3834 13.608-18.9198.125-.2076.16-.492.154-.7677-.01-.4734-.532-.6955-.947-.4678l-26.673 14.629c-.295.1613-.443.501-.361.8265l1.148 4.5619-10.197 26.4009-.942 1.1858-.871 1.8764-5.297 12.995-15.19 5.2893c1.397-1.0715 9.857-4.8915 10.384-5.34 2.67-2.2743 5.636-5.9062 6.226-8.8472l1.386-15.0792-.592-2.4235 3.246-36.9261s8.884-15.97339 9.315-18.60486c.028-.17154 0-.3696-.051-.56071-.119-.441274-.658-.535468-1.007-.24155l-25.248 21.21412c-.269.2263-.341.6113-.172.9196l2.34 4.2583-2.519 22.4554-2.034 3.0363-1.932 17.2874c-7.353 3.488-35.706 18.9228-35.706 18.9228z" fill="#13926e"/><path d="m155.856 102.07s15.367 18.402 24.821 26.711l19.485-11.233c8.385-5.135 26.453-15.594 32.096-18.8534 1.12-.647 1.99-1.6389 2.489-2.8325l8.239-19.7079-.365-1.5552s7.887-27.8271 9.38-33.1566c0 0 12.686-17.3834 13.608-18.9198.125-.2076.16-.492.154-.7677-.01-.4734-.532-.6955-.947-.4678l-26.673 14.629c-.295.1613-.443.501-.361.8265l1.148 4.5619-10.197 26.4009-.942 1.1858-.871 1.8764-5.297 12.995-15.19 5.2893c1.397-1.0715 9.857-4.8915 10.384-5.34 2.67-2.2743 5.636-5.9062 6.226-8.8472l1.386-15.0792-.592-2.4235 3.246-36.9261s8.884-15.97339 9.315-18.60486c.028-.17154 0-.3696-.051-.56071-.119-.441274-.658-.535468-1.007-.24155l-25.248 21.21412c-.269.2263-.341.6113-.172.9196l2.34 4.2583-2.519 22.4554-2.034 3.0363-1.932 17.2874c-7.353 3.488-35.706 18.9228-35.706 18.9228z" fill="#13926e"/><path d="m180.858 128.682 19.673-11.115c10.009-6.129 26.432-15.72 28.862-17.327m-20.157-12.0239 12.387-4.4535c.26 1.3946 5.981 6.5791 5.981 6.5791m-18.368-2.1256c1.396-1.0715 7.055-4.0557 7.581-4.5042 2.67-2.2743 5.637-5.9062 6.226-8.8472l1.387-15.0792-.542-2.2869m-14.652 30.7175-15.106 5.877c-5.469 1.6226-15.884 4.8611-20.516 9.3859m32.161-33.2791c.279 1.4972 5.986 4.5458 5.986 4.5458" stroke="#101738" stroke-width=".294962"/><path d="m237.643 36.1902 27.984-15.3476s.318 1.1196-.018 1.6801c-.923 1.5364-13.608 18.9198-13.608 18.9198-1.494 5.3295-5.673 19.4309-9.325 33.1089-5.577-1.8809-10.726-4.4504-13.913-6.8466l10.166-26.4002z" fill="#101738"/><path d="m237.643 36.1899 27.984-15.3476s.318 1.1196-.018 1.6801l-27.693 14.753z" fill="#13926e"/><path d="m193.943 94.0073s13.349-4.6627 17.555-7.0231c4.206-2.3605 7.288-3.9215 9.827-8.3284-1.216 1.3417-4.379 3.4739-5.964 4.5265-3.739 2.4822-14.257 8.263-21.418 10.825z" fill="#101738"/><path d="m236.008.466462-26.38 22.165738 2.632 4.7886-2.611 23.796c4.443 1.3938 11.831 4.3825 14.349 6.7852l3.084-37.5661s8.884-15.9734 9.315-18.60487c.09-.54728-.389-1.364568-.389-1.364568z" fill="#101738"/><path d="m236.008.466462-26.38 22.165638.588 1.0698 26.181-21.87087c.09-.54728-.389-1.364568-.389-1.364568z" fill="#13926e"/><path d="m216.816 83.712c2.671-2.2743 5.637-5.9061 6.227-8.8471l.506-3.7652c-1.596-.2638-6.233-.3531-8.088 2.8529-2.436 4.2105-.052 7.7179 1.355 9.7594z" fill="#101738"/><path d="m232.249 98.6994c-1.244.7187-3.09 1.7856-5.301 3.0686-1.529-2.372-2.09-6.7341 1.219-9.6003 3.31-2.8662 8.023-.1783 7.95.4166l-1.371 3.2779c-.499 1.1936-1.376 2.1901-2.497 2.8372z" fill="#101738"/><path d="m85.9729 179.259c.4702-.671 4.3097-1.986 6.1707-2.56 0 0 8.5914 5.867 7.8267 7.108-2.1045 3.417-8.412 5.091-8.412 5.091-2.8544.503-9.273 1.774-9.5658.334-.2584-1.27.9265-1.978 1.6709-2.208-2.5746.7-8.2022 1.888-10.1163 1.049-2.3925-1.05-.3486-3.375.8015-2.695s6.9883-1.651 8.0643-2.106c1.1032-.467 2.9723-3.173 3.56-4.013z" fill="#fff"/><path d="m92.1436 176.699c-1.861.574-5.7005 1.889-6.1707 2.56-.5877.84-2.4568 3.546-3.56 4.013-1.076.455-6.9142 2.786-8.0643 2.106s-3.194 1.645-.8015 2.695c1.9141.839 7.5417-.349 10.1163-1.049m0 0 2.5438-.595c.2.186 1.0643.311 1.5782.79m-4.122-.195c-.7444.23-1.9293.938-1.6709 2.208.2928 1.44 6.7114.169 9.5658-.334m-5.3213-8.202c-.2928.459.0519 1.486.6135 1.698" stroke="#101738" stroke-linejoin="round" stroke-width=".294962"/><path d="m110.591 120.72c6.225-5.548 11.888 2.269 11.888 2.269-.486 10.674-4.102 32.459-5.104 38.34-.168.989-.587 1.901-1.218 2.68l-17.1632 21.211c-3.0057-2.801-5.3644-5.715-8.3327-8.84 0 0 8.9275-11.102 14.7559-18.5l.52-26.978s2.038-7.85 4.654-10.182z" fill="#13926e"/><path d="m110.591 120.72c6.225-5.548 11.888 2.269 11.888 2.269-.486 10.674-4.102 32.459-5.104 38.34-.168.989-.587 1.901-1.218 2.68l-17.1632 21.211c-3.0057-2.801-5.3644-5.715-8.3327-8.84 0 0 8.9275-11.102 14.7559-18.5l.52-26.978s2.038-7.85 4.654-10.182z" fill="#13926e"/><path d="m105.417 157.88.519-26.978m-15.2756 45.478c2.9684 3.125 5.327 6.039 8.3327 8.84" stroke="#101738" stroke-linejoin="round" stroke-width=".294962"/><path d="m90.6602 176.38c2.9683 3.125 5.327 6.039 8.3327 8.84" stroke="#101738" stroke-linejoin="round" stroke-width=".294962"/><path d="m105.941 119.616c-3.344 10.414-.739 19.886 7.138 27.113 5.908 5.42 17.256 11.572 17.256 11.572s39.275-21.57 51.073-29.73c-4.87-4.764-25.42-26.689-25.42-26.689s-49.229 15.184-50.047 17.734z" fill="#13926e"/><path d="m152.966 139.258c-4.672 2.075-5.831 7.355-7.035 10.356 4.455-2.508 9.42-5.327 14.271-8.131-.85-.598-3.357-3.948-7.236-2.225z" fill="#101738"/><path d="m153.889 102.508 2.144-.674 25.469 26.78-1.847 1.263z" fill="#101738"/><path d="m106.477 139.095c4.784 1.464 12.25 3.748 12.25 3.748l-1.293-13.238-4.778-2.987c-3.128-3.471-5.906-7.847-9.586-10.639-4.3602-3.307-13.1563 2.881-13.2465 7.715-.0265 1.421.5368 2.92 1.5233 4.053l3.3663 4.255c1.765 2.231 5.3039 5.997 6.6669 7.433.348.367.825.551 1.283.492 1.222-.157 3.576-.5 3.814-.832z" fill="#ffd2bc"/><path d="m108.227 136.657s-1.067 1.486-1.75 2.439c-.323.449-4.543.92-4.543.92m1.562-10.731-2.491.087c-2.5162 2.022-5.2429 2.596-6.2918 2.631.4774.603 1.0847 1.319 1.7436 2.071" stroke="#101738" stroke-linejoin="round" stroke-miterlimit="10" stroke-width=".294962"/><path d="m118.448 142.76-11.97-3.664 1.75-2.439-.105 2.059z" fill="#101738"/><path d="m87.7939 123.733c-.7825-2.184 5.6366-6.64 5.6366-6.64s4.0692-3.324 6.7745-3.115c.692.054 1.81 1.556 1.81 1.556 3.319-2.292 4.444-.056 5.967 1.961 2.391 3.168 5.742 9.689 5.742 9.689s-.235 3.192-2.579 6.437l-3.175-2.864s1.816-1.335 1.018-2.752c-1.092-1.939-2.623-2.427-3.905-1.111-.873.896.345 3.059.345 3.059s-1.149-.085-1.749-.337c-.861-.362-2.587-3.698-3.458-5.475-.3135-.641-.9985-.985-1.6538-.805-1.5998.439-4.7004 1.35-7.9668 2.636-1.0489.413-2.024-.055-2.8065-2.239z" fill="#101738"/><path d="m108.458 130.058c-.97 1.118-2.616 1.185-3.675.151-1.06-1.034-1.131-2.778-.161-3.896.971-1.118 2.617-1.185 3.676-.151s1.131 2.778.16 3.896z" fill="#ffd2bc"/><path d="m106.334 126.985.701 1.015-.484.628" stroke="#101738" stroke-linecap="round" stroke-linejoin="round" stroke-width=".294962"/><path d="m109.651 140.082c1.959-1.323 7.206-9.587 4.344-13.306l3.614-.126s1.934.964 3.648 4.114c2.05 3.765-2.94 16.151-2.94 16.151s-8.967-6.63-8.666-6.833z" fill="#13926e"/><path d="m116.677 126.404s4.18 2.16 4.934 5.269m-2.757 12.179-.578 3.248-8.626-7.018s1.96-1.626 2.607-2.917" stroke="#101738" stroke-linejoin="round" stroke-width=".294962"/><path d="m98.4507 214.212c-.7424-.563-.413-4.39.1107-5.846.5237-1.455 11.0666-13.223 11.0666-13.223l8.821 6.835c-1.632 2.21-3.7 5.698-6.59 6.346 0 0-.715 1.064-.838 2.33 0 0 1.826 1.522 2.138 2.363.243.656-1.029 1.937-2.208 1.208.036.217.007.425-.109.617-.819 1.355-2.929-.246-3.95-1.02-1.304-.99-1.758-2.234-1.824-3.237l.154 2.341s.974.985 1.251 2.06c.139.538-.406 1.426-1.22 1.546-.813.119-1.669-.897-2.347-1.781-.532-.695-.919-3.909-1.005-4.592s1.257-3.494 1.257-3.494l-2.144 3.191s-.043 2.887-.474 4.088c-.315.873-1.3469.831-2.0893.268z" fill="#fff"/><path d="m98.5621 208.366c-.5237 1.456-.8531 5.283-.1107 5.846s1.7746.605 2.0886-.268c.432-1.201.475-4.088.475-4.088m17.434-7.878c-1.631 2.21-3.7 5.697-6.59 6.346 0 0-.714 1.064-.838 2.329 0 0 1.827 1.522 2.139 2.364.243.655-1.029 1.937-2.208 1.208m-9.937-4.369 2.144-3.191s-1.343 2.811-1.257 3.494.473 3.897 1.004 4.591c.678.885 1.534 1.901 2.348 1.782.814-.12 1.359-1.008 1.22-1.546-.277-1.075-1.251-2.06-1.251-2.06s-.094-1.427-.154-2.341m-4.054-.729c.034-.097.104-.291-.278-1.075m4.332 1.804c-.066-1.003.542-2.43 1.066-3.886m-1.066 3.886c.066 1.003.52 2.247 1.824 3.237 1.021.774 3.13 2.375 3.95 1.02.819-1.355-2.711-3.54-2.711-3.54-.375-.958.665-3.695.665-3.695" stroke="#101738" stroke-linejoin="round" stroke-width=".294962"/><path d="m126.665 143.026c.18-6.653 9.08-12.258 16.084-7.706 7.004 4.553 2.177 18.229 2.177 18.229s-2.868 18.914-4.215 21.914c-1.347 2.999-15.153 20.653-22.154 28.535-2.44-1.012-11.227-6.222-10.755-6.911 2.638-3.849 17.863-24.604 17.863-24.604.418-9.145.689-17.905 1-29.457z" fill="#13926e"/><path d="m126.825 143.033c-.127 4.709-1.038 25.811-1.147 29.819m-17.876 24.236c-.472.688 8.315 5.898 10.755 6.91" stroke="#101738" stroke-linejoin="round" stroke-width=".294962"/><circle cx="98.7299" cy="124.855" fill="url(#d)" r="20" transform="matrix(-.48297676 -.87563317 .87563317 -.48297676 37.086968 271.608239)"/></g></svg>