<svg fill="none" height="266" viewBox="0 0 266 266" width="266" xmlns="http://www.w3.org/2000/svg" xmlns:xlink="http://www.w3.org/1999/xlink"><linearGradient id="a" gradientUnits="userSpaceOnUse" x1="214.755" x2="96.9804" y1="248.716" y2="4.85426"><stop offset="0" stop-color="#13926e" stop-opacity=".15"/><stop offset="1" stop-color="#ef4921" stop-opacity=".05"/></linearGradient><linearGradient id="b" gradientUnits="userSpaceOnUse" x1="135.676" x2="134.761" y1="278.057" y2="132.426"><stop offset="0" stop-color="#101738" stop-opacity=".05"/><stop offset="1" stop-color="#101738" stop-opacity=".35"/></linearGradient><linearGradient id="c" gradientUnits="userSpaceOnUse" x1="135.82" x2="154.697" y1="71.8298" y2="109.452"><stop offset="0" stop-color="#fff" stop-opacity=".45"/><stop offset="1" stop-color="#fff" stop-opacity=".15"/></linearGradient><clipPath id="d"><path d="m0 0h266v266h-266z"/></clipPath><mask id="e" height="264" maskUnits="userSpaceOnUse" width="255" x="8" y="1"><path d="m77.6842 255.502c-60.6473-24.503-79.85282-84.331-64.3439-142.248 11.543-43.1067 51.7595-106.33636 111.4857-111.22988 52.609-4.31042 97.459 38.97008 91.618 90.34288-3.612 31.768 36.93 35.658 44.075 70.762 19.22 94.419-122.187 116.876-182.8348 92.373z" fill="#c4c4c4"/></mask><g clip-path="url(#d)"><path d="m76.5834 254.834c-60.3669-25.186-78.89593-85.226-62.7343-142.965 12.0288-42.9737 52.9564-105.74547 112.7339-109.96456 52.655-3.71636 97.013 40.06756 90.593 91.37116-3.97 31.7254 36.525 36.0724 43.274 71.2554 18.152 94.63-123.5 115.49-183.8666 90.303z" fill="url(#a)"/><g mask="url(#e)"><path d="m135.676 297.07c101.975 0 184.643-43.704 184.643-97.615s-82.668-97.615-184.643-97.615c-101.9757 0-184.6433 43.704-184.6433 97.615s82.6676 97.615 184.6433 97.615z" fill="url(#b)"/><ellipse cx="167.48" cy="113.889" fill="#0b0c0d" fill-opacity=".1" rx="5" ry="1"/><ellipse cx="160.331" cy="128.351" fill="#0b0c0d" fill-opacity=".1" rx="5.85008" ry="1.46252"/><g fill="#101738"><ellipse cx="57.0653" cy="177.393" fill-opacity=".25" rx="38.7568" ry="14.6252"/><path d="m83.782 180.763c-2.4298 2.009-5.1787 1.871-6.9318 1.469-1.205-.277-2.1049-1.196-2.6735-2.294l-30.6459-59.177h.6842v-1.527l41.2635 52.823c.6227.797 1.0459 1.745 1.0003 2.756-.0733 1.623-.561 4.185-2.6968 5.95z" fill-opacity=".8"/><path clip-rule="evenodd" d="m80.8043 167.83c-2.4137 2-6.2526 5.181-5.5322 7.223.2437.69.0995 1.307-.0449 1.924-.2682 1.147-.5365 2.295 1.6855 3.916 1.317.13 2.8006.075 4.2054-.609 3.2853-1.601 4.7947-4.133 4.7947-7.583 1.5118 2.267-.1808 7.17-3.188 8.84-2.5393 1.411-6.6882 1.247-7.597-.451-.5567-.572-1.148-1.426-1.7018-2.653l-3.077-5.538 11.3847-5.846c-.2691.23-.5847.492-.9294.777z" fill-rule="evenodd"/><path d="m20.1191 177.502c.1907 1.034.5654 1.973 1.1357 2.802 1.4549 2.114 4.034 3.294 7.4334 3.632 3.3999.337 7.6309-.168 12.408-1.436 9.5548-2.537 21.3104-8.131 33.0042-16.179 11.6939-8.049 21.1171-17.032 26.8986-25.051 2.89-4.009 4.873-7.781 5.772-11.077s.717-6.126-.738-8.24c-1.366-1.986-3.725-3.148-6.8227-3.561.4741.044.9357.102 1.3847.174 3.555.571 6.287 2.03 7.944 4.436 1.391 2.022 1.797 5.03 1.214 8.692-.583 3.66-2.151 7.962-4.695 12.562-5.0855 9.198-14.0637 19.574-26.8195 28.353-9.1548 6.301-20.5391 11.108-30.9633 13.139-5.2119 1.016-10.1813 1.337-14.5103.805-4.3294-.532-8.0136-1.916-10.6618-4.306-.128-.115-.2461-.243-.3488-.381-.9388-1.258-1.4736-2.725-1.6352-4.364z" stroke="#101738" stroke-linejoin="round" stroke-width=".146252"/><path d="m78.3214 170.49c13.2226-9.101 20.4447-16.965 24.2256-22.085-5.3124 8.083-13.439 16.723-24.3085 24.204-9.1549 6.301-20.4989 11.108-30.8827 13.139-5.1918 1.015-10.1409 1.336-14.4549.804-4.3142-.532-7.9883-1.916-10.6365-4.306-.6831-.617-1.1837-1.428-1.532-2.325.109.217.2311.426.3672.624 1.4542 2.112 4.3052 3.539 8.1111 4.245 3.8084.706 8.5854.693 13.9102-.083 10.6498-1.554 23.5024-6.165 35.2005-14.217z" stroke="#101738" stroke-width=".146252"/></g><ellipse cx="63.6438" cy="151.129" fill="#fff" rx="18.3699" ry="51.386" transform="matrix(.5669642 .82374244 -.82374244 .5669642 152.051415 13.018169)"/><path d="m67.1016 156.989c-2.7562 1.626-5.6382 2.429-8.0652 2.418-2.4306-.01-4.3767-.833-5.3153-2.424-.9387-1.592-.7182-3.693.4482-5.826 1.1647-2.129 3.261-4.263 6.0172-5.889s5.6381-2.429 8.0652-2.419c2.4306.011 4.3766.834 5.3153 2.425s.7182 3.693-.4482 5.825c-1.1647 2.13-3.2611 4.264-6.0172 5.89z" fill="#eb565a" stroke="#101738" stroke-linejoin="round" stroke-width=".292504"/><path d="m53.7565 156.997c1.851 3.291 7.9067 3.177 13.2312.06-2.2347 1.308-9.9663 2.739-12.1572-1.008-2.184-3.736 2.6117-8.114 5.3702-10.82-5.5499 3.274-8.3948 8.462-6.4442 11.768z" fill="#e6182d"/><ellipse cx="63.644" cy="151.129" fill="#ef4921" rx="6.95077" ry="11.6674" transform="matrix(.50812173 .86128526 -.86128526 .50812173 161.470281 19.521432)"/><path d="m67.1755 157.115c-5.5499 3.274-11.6302 3.248-13.5808-.058s.9672-8.641 6.5171-11.915" stroke="#101738" stroke-linejoin="round" stroke-width=".292504"/><path d="m65.2846 154.267c-1.3042.769-2.6678 1.149-3.8159 1.144-1.1498-.005-2.0694-.394-2.5127-1.146-.4434-.751-.3396-1.745.2122-2.753.5509-1.008 1.5427-2.018 2.8469-2.787s2.6678-1.149 3.8159-1.144c1.1498.005 2.0694.394 2.5128 1.146.4433.751.3395 1.744-.2123 2.753-.5509 1.008-1.5427 2.017-2.8469 2.787z" fill="#101738" stroke="#101738" stroke-linejoin="round" stroke-width=".146252"/><path d="m65.5168 152.842c2.1618-1.647 2.1517-3.963 2.1517-3.963l-25.1732-32.225h-1.4892l19.4758 37.58s2.5128.53 5.0349-1.392z" fill="#ef4921"/><path d="m60.4817 154.234s2.5128.53 5.0349-1.392c.893-.68 1.2632-1.148 1.7209-2.173-.8912.972-3.2801 1.568-4.5232 1.129-1.2432-.439-14.9903-23.612-21.7084-35.144z" fill="#ce2b28"/><path d="m65.4292 153.078c2.1617-1.647 2.2391-4.199 2.2391-4.199l-25.1732-32.225" stroke="#101738" stroke-width=".292504"/><path clip-rule="evenodd" d="m32.229 111.175c-1.2007 1.611-1.8773 3.622-1.804 5.763.0123.36.3342.615.6806.574.3358-.039.5705-.336.5613-.663-.0513-1.815.5206-3.519 1.5316-4.893.2019-.275.166-.671-.1115-.888-.2635-.206-.6519-.17-.858.107zm-.6155 10.368c1.1137 2.109 3.0207 3.709 5.2911 4.44.3345.107.6765-.097.7647-.426.0898-.335-.1109-.669-.4291-.774-1.9265-.632-3.5462-1.991-4.5038-3.779-.1577-.294-.5198-.434-.8335-.29-.3102.143-.4539.517-.2894.829zm3.027-8.487c-.7238.995-1.1505 2.212-1.1631 3.511-.0036.37.326.63.6752.589.3327-.039.5623-.329.5701-.647.0239-.981.3447-1.901.8823-2.663.1951-.277.1664-.676-.1151-.897-.2596-.203-.6463-.172-.8494.107zm-.0848 7.078c.7256 1.287 1.9021 2.272 3.2971 2.76.3355.118.678-.092.7658-.419.0902-.336-.1129-.666-.4225-.779-1.0581-.388-1.953-1.137-2.5208-2.111-.1654-.283-.5234-.426-.838-.28-.3091.142-.457.518-.2816.829zm2.507-5.208c-.2488.363-.4197.782-.4909 1.231-.0633.4.2972.681.6565.639.3196-.037.5331-.303.5992-.578.0398-.166.103-.324.1863-.469.162-.283.1627-.696-.1327-.927-.2458-.193-.6248-.179-.8184.104zm.4885 4.004c.3196.468.7656.838 1.2843 1.066.3369.149.6815-.075.7677-.396.0914-.341-.1216-.658-.3933-.804-.2111-.113-.3978-.268-.548-.455-.1915-.238-.5367-.389-.8536-.243-.3053.141-.4673.525-.2571.832z" fill="#ef4921" fill-rule="evenodd" stroke="#101738" stroke-width=".292504"/></g><ellipse cx="154.288" cy="213.939" fill="#101738" fill-opacity=".25" rx="71.6634" ry="14.6252"/><path d="m99.4786 217.612c-5.0965-3.374-11.8624-11.676-11.9742-16.434l38.3906-24.06c11.959-9.732 30.855-22.847 35.683-26.22 6.036-4.218 14.083-.001 17.436 2.27 1.604 1.086 13.195 14.075 25.316 27.88l.825.94c.309.354.138.992.448 1.346 7.586 8.653 15.683 17.133 21.023 23.309 0 0 27.944 12.231 34.918 15.722.821.411.623 1.845.623 1.845l-43.493-.84-7.472-10.514s-16.556-10.691-25.8-19.01c-9.141-8.227-14.26-13.039-15.357-12.798-1.097.242-12.99 12.773-17.55 17.185-5.7 5.515-23.062 22.51-31.444 24.132-8.383 1.622-15.202-.536-21.5724-4.753z" fill="#13926e"/><path d="m216.022 224.918-4.089-11.735s-9.664-10.172-20.225-16.961c5.952-3.921 10.832-9.415 13.803-13.025 7.871 9.258 15.745 16.59 21.481 23.446l35.169 15.861.737 2.414z" fill="#101738"/><path d="m97.6503 218.658c-5.0965-3.487-9.7602-11.302-9.872-16.22 26.5407-13.015 50.5447-28.796 74.5887-46.16 4.828-3.488 11.141-3.719 16.453 0 1.517 1.062 12.47 13.302 23.485 26.233.274.323.516.407 1.104 1.097.34.4.316 1.326.614 1.676 7.668 9.018 16.23 19.252 22.027 26.182l.62.741 36.228 11.529v1.539h-47.216l-3.749-6.617s-12.064-11.478-22.144-18.962c-.333-.247-2.719-.457-2.719-.457s-.937-2.651-1.195-2.848c-10.468-7.986-16.196-13.88-16.196-13.88-2.193 2.697-11.06 10.878-21.572 21.207s-25.594 19.013-25.594 19.013-18.492.286-24.8627-4.073z" fill="#13926e"/><circle fill="#101738" r="7.5" transform="matrix(1 -.00000001 -.00000001 -1 169.5 150.5)"/><path d="m122.513 222.73s-18.492.287-24.8627-4.072c-5.0965-3.487-9.7602-11.302-9.872-16.22 26.5407-13.015 50.5447-28.796 74.5887-46.161m7.312 26.234s5.728 5.894 16.196 13.88c.258.197 1.195 2.848 1.195 2.848s2.386.21 2.719.457c10.08 7.484 22.144 18.962 22.144 18.962m-33.113-62.381c1.517 1.062 12.47 13.303 23.485 26.234.274.323 1.104 1.097 1.104 1.097s.316 1.326.614 1.676c7.946 9.345 16.852 19.996 22.647 26.923l36.228 11.529" stroke="#101738" stroke-width=".292504"/><path d="m171.05 176.021-1.371 6.49s.726.747 2.133 2.069z" fill="#101738" stroke="#101738" stroke-width=".146252"/><path d="m215.933 225.275-4.59-6.605c-10.237-9.141-13.236-11.296-21.92-18.974 5.393-3.291 14.397-14.534 14.397-14.534s17.229 20.467 22.656 26.954l36.423 11.528-.123 1.631z" fill="#101738"/><path d="m262.899 223.644-36.423-11.528c-5.427-6.487-22.656-26.954-22.656-26.954" stroke="#13926e" stroke-width=".292504"/><path d="m262.898 225.106h-47.424l-.641-1.462h48.065z" fill="#13926e"/><path d="m142.73 112.644c-3.789 2.708-9.701 6.935-9.701 6.935l-5.214-12.065 6.215-2.882c1.733-3.99 2.439-9.8453 4.86-13.399 2.868-4.2106 12.464-1.3542 13.976 2.8853.444 1.246.391 2.7356-.144 4.0286l-1.711 4.7521c-.452 1.256-1.186 2.99-1.903 4.615-.692 1.568-1.368 3.036-1.758 3.873-.211.455-.603.781-1.051.87-1.138.224-3.265.606-3.569.387z" fill="#ffd2bc"/><path d="m140.713 111.368s1.18.879 2.017 1.276c.418.301 4.282-.534 4.282-.534m-4.557-9.008 2.224-.661c2.82 1.039 5.396.739 6.332.458-.197.549-.448 1.188-.729 1.87" stroke="#101738" stroke-linejoin="round" stroke-miterlimit="10" stroke-width=".292504"/><path d="m133.251 119.423 9.479-6.779-2.267-1.634.702 1.786z" fill="#101738"/><path d="m155.153 94.0261s-2.783-1.9918-5.531-3.4983c-3.357-1.8401-6.84-2.934-7.961-2.2597-1.396.8392-1.27 1.6783-1.27 1.6783-3.608-1.0397-4.548 4.0797-4.548 4.0797l-3.172 11.7009s2.145 1.179 4.805 2.895l2.305-2.895s-1.998-.64-1.713-2.127c.389-2.035 1.596-2.92 3.117-2.138 1.036.532.602 2.803.602 2.803s.988-.416 1.444-.817c.698-.615 2.449-4.8615 3.182-6.6908.205-.5123.661-.8596 1.192-.8623 1.049-.0056 3.064.0586 6.089.4645.772.1036 1.459-2.3333 1.459-2.3333z" fill="#101738"/><path d="m140.391 89.9464c-3.608-1.0397-4.548 4.0797-4.548 4.0797l-3.172 11.7009s2.145 1.179 4.805 2.895l2.305-2.895s-1.998-.64-1.713-2.127c.389-2.035 1.596-2.92 3.117-2.138 1.036.532.602 2.803.602 2.803s.988-.416 1.444-.817c.698-.615 2.449-4.8615 3.182-6.6908.205-.5123.661-.8596 1.192-.8623 1.049-.0056 3.064.0586 6.089.4645.772.1036 1.459-2.3333 1.459-2.3333s-2.783-1.9918-5.531-3.4983c-3.357-1.8401-6.84-2.934-7.961-2.2597-1.396.8392-1.27 1.6783-1.27 1.6783zm0 0c.243.4022.945 1.8375 1.27 2.0358" stroke="#101738" stroke-width=".146252"/><path d="m138.305 105.253c1.188.699 2.66.272 3.289-.955.628-1.226.175-2.787-1.013-3.486-1.187-.699-2.66-.271-3.289.955-.628 1.227-.175 2.787 1.013 3.486z" fill="#ffd2bc"/><path d="m139.27 101.912-.318 1.103.614.411" stroke="#101738" stroke-linecap="round" stroke-linejoin="round" stroke-width=".292504"/><path d="m106.552 121.843c4.422-5.686 10.268-10.091 16.88-12.949 1.968-.851 3.866-1.614 5.297-2.068 2.014 2.017 9.826 7.769 10.969 8.044l-2.926 4.387 3.337 20.475-8.638 37.706c-6.629 5.524-43.1059 28.326-43.8757 26.188-1.6453-4.57 2.1392-27.987 4.2119-43.725 1.1947-9.072 4.4756-18.332 7.3057-26.201 1.2061-3.356 4.3761-7.917 7.4391-11.857z" fill="#13926e"/><circle cx="116.056" cy="144.132" fill="#101738" r="5.11882"/><path d="m131.471 177.438c-6.856 4.799-43.106 28.327-43.8757 26.188-.169-.469-.2807-1.137-.3429-1.975l37.2716-21.699 3.93-5.843v3.329l3.565-2.422z" fill="#101738"/><path d="m130.557 114.138c1.538 1.024 6.216 5.119 6.216 5.119l1.28-2.011" stroke="#101738" stroke-linejoin="round" stroke-width=".292504"/><path d="m193.079 154.723s-3.907-5.272-4.53-4.907c-.624.365-.465.453-.66 1.069l-10.182-10.747c2.009-1.078 4.437-1.319 5.409-1.319 2.285 0 4.301.227 5.433 1.319 1.132 1.093 7.791 11.142 7.142 14.289-.393 1.906-2.429 5.416-3.336 3.696-.618-1.173.724-3.4.724-3.4z" fill="#fff"/><path d="m193.079 154.723s-3.907-5.272-4.53-4.907c-.624.365-.465.453-.66 1.069l-10.182-10.747m15.372 14.585s-1.342 2.227-.724 3.4c.907 1.72 2.943-1.791 3.336-3.696.409-1.984-2.086-6.711-4.27-10.208-1.28-2.05-2.454-3.677-2.872-4.081m4.53 14.585c.244.099.805.238 1.097 0" stroke="#101738" stroke-linejoin="round" stroke-width=".292504"/><path d="m193.061 153.34s-3.888-5.352-4.512-4.987c-.623.365-3.133.703-3.328 1.32v-3.066c.945-.51 3.185-1.28 4.584-.287 1.398.992 3.027 4.174 3.666 5.64z" fill="#101738"/><path d="m193.353 152.003s-1.831-3.728-4.948-3.816c-3.901-.111-15.034.988-11.322 3.816 2.011 1.532 5.941 5.188 5.941 5.188l.971 1.431-2.504 4.477s-3.068 2.41-4.962 3.882c-1.443 1.12.371 3.329 1.643 2.535.386-.241 3.689-1.871 3.689-1.871s-.437 1.059.318 1.871c.755.813 1.734.423 2.298 0 .697-.523 5.356-5.344 5.356-5.344l.552 1.694s-1.683 2.189-1.98 3.65c-.211 1.04 1.871 1.935 2.376 1.248.917-1.248 1.933-2.512 2.664-4.341 1.109-2.772-1.05-9.951-1.05-9.951z" fill="#fff"/><path d="m192.395 156.472s2.159 7.179 1.05 9.952m0 0c-.731 1.828-1.747 3.092-2.664 4.34-.505.688-2.587-.207-2.376-1.248.297-1.461 1.98-3.65 1.98-3.65l-.552-1.694m3.612 2.252c-.366.365-1.389-.127-1.747-.558m-1.865-1.694.948-2.911m-.948 2.911s-4.659 4.822-5.356 5.344c-.564.423-1.543.813-2.298 0-.755-.812-.318-1.871-.318-1.871m7.972-3.473c-.285-.091-.912-.354-1.141-.673m-6.831 4.146s3.204-3.393 5.256-5.567m-5.256 5.567s-3.303 1.63-3.689 1.871c-1.272.794-3.086-1.415-1.643-2.535 1.894-1.472 4.962-3.882 4.962-3.882l2.504-4.476-.971-1.431s-3.93-3.657-5.941-5.189m4.778 15.642c-.282-.094-.921-.449-1.213-1.117m6.469-4.45c.397-1.127 1.016-2.884 1.016-2.884m-1.016 2.884c-.253-.408-.765-.738-1.35-.773" stroke="#101738" stroke-linejoin="round" stroke-width=".292504"/><path d="m117.394 116.405c2.242-2.54 8.044-3.181 13.528 0l22.304 22.852c4.762 0 26.325-.85 33.409-1.17v13.894c-6.216.686-36.492 4.511-38.62 3.108-8.318-5.485-31.901-23.035-31.901-23.035s-3.23-10.539 1.28-15.649z" fill="#13926e"/><path d="m181.936 152.527v-14.238c-.476.02-.969.04-1.476.061v14.35c.512-.06 1.005-.118 1.476-.173z" fill="#13926e"/><path d="m116.114 132.055s.609.458 1.667 1.25c3.181 2.383 10.426 7.788 17.414 12.845m2.926 2.106c-.962-.689-1.942-1.394-2.926-2.106m0 0-8.066 33.573m10.009-56.992 16.088 16.636 11.151-.457m-9.026 16.248 22.92-2.171m-71.48 38.665 7.678-40.95m72.029-11.792v12.706" stroke="#101738" stroke-linejoin="round" stroke-width=".292504"/><circle cx="141.5" cy="97.2186" fill="url(#c)" r="20" transform="matrix(.9961947 -.08715574 .08715574 .9961947 -7.934709 12.702484)"/></g></svg>