<svg fill="none" height="266" viewBox="0 0 266 266" width="266" xmlns="http://www.w3.org/2000/svg" xmlns:xlink="http://www.w3.org/1999/xlink"><linearGradient id="a" gradientUnits="userSpaceOnUse" x1="146.796" x2="203.648" y1="-10.9347" y2="259.663"><stop offset="0" stop-color="#13926e" stop-opacity=".15"/><stop offset="1" stop-color="#ef4921" stop-opacity=".05"/></linearGradient><linearGradient id="b" gradientUnits="userSpaceOnUse" x1="206.62" x2="196.888" y1="50.2905" y2="106.276"><stop offset="0" stop-color="#fff" stop-opacity=".45"/><stop offset="1" stop-color="#fff" stop-opacity=".05"/></linearGradient><clipPath id="c"><path d="m0 0h266v266h-266z"/></clipPath><mask id="d" height="88" maskUnits="userSpaceOnUse" width="126" x="40" y="136"><path d="m126.665 154.79c3.055-5.063 12.251-18.577 20.384-18.577l18.619 13.858s-36.136 43.842-40.39 47.692c-1.928 1.745-3.768 3.76-5.646 5.424-2.268 2.009-4.59 3.506-7.188 3.398-4.764-.198-11.4-.548-18.499-.951-.613-.035-1.2295-.07-1.8485-.106-17.9932-1.032-38.1344-2.341-38.1344-2.341l-12.1263 20.007-1.2693-.395 4.9078-32.668 43.2948-3.276s.5039-.523 1.1091-.83c.6053-.306 2.9577.522 2.9577.522l13.5851-1.028c6.945-9.181 17.19-25.665 20.244-30.729z" fill="#13926e"/></mask><g clip-path="url(#c)"><path d="m264.007 151.487c0 64.826-48.277 104.685-107.787 111.936-44.292 5.397-117.9827-8.083-144.8936-61.148-23.7044-46.742-.3763-104.0222 49.4436-117.7278 28.9485-7.9639 22.0539-45.6414 49.099-66.7716 75.858-59.2681 154.138 68.8864 154.138 133.7114z" fill="url(#a)"/><ellipse fill="#101738" rx="52.0011" ry="74.2448" transform="matrix(.854157 -.520015 .580518 .814247 201.838 98.4658)"/><g fill="#fff"><circle cx="176.25" cy="45.25" r=".25"/><circle cx="164.25" cy="73.25" r=".25"/><circle cx="220.25" cy="73.25" r=".25"/><circle cx="220.25" cy="137.25" r=".25"/><circle cx="248.25" cy="121.25" r=".25"/><circle cx="180.25" cy="141.25" r=".25"/><circle cx="204.25" cy="157.25" r=".25"/><circle cx="204.25" cy="145.25" r=".25"/><circle cx="204.25" cy="101.25" r=".25"/><circle cx="224.25" cy="101.25" r=".25"/><circle cx="212.25" cy="45.25" r=".25"/></g><path d="m142.529 237.445c-10.976 8.223-42.413 26.86-72.655 11.949-27.4672-13.543-25.0064-48.345-8.8604-58.552 28.3531-17.924 58.6964 7.17 89.7074 0 31.011-7.169 25.616-33.423 40.096-41.822 27.468-15.933 33.872-.495 23.48 4.779-27.467 13.941-16.391 25.492-30.125 37.043-13.733 11.551-20.379 30.67-41.643 46.603z" fill="#101738" fill-opacity=".25"/><path d="m100.154 83.7226c26.164-24.6476 31.094 3.0335 43.316 16.8924 7.577 8.591 26.156.998 33.137 0" stroke="#101738" stroke-width="1.47883"/><path d="m258.5 73.2998c-.855-.4441-4.284 1.5581-5.412 2.692-1.128 1.1338-7.452 16.1929-7.452 16.1929l10.291 5.2136c1.343-2.5033 3.684-5.9796 3.01-8.9665 0 0 .678-1.1387 1.805-1.8141 0 0 2.027 1.6263 3.155.9509.622-.3731 1.354-1.819.151-2.5976.218-.0623.4-.1815.527-.3748.903-1.3654-1.526-2.6276-2.701-3.2379-1.502-.7803-2.865-.6531-3.832-.2706l2.255-.8925s1.352.473 2.479.256c.564-.1086 1.152-1.0108.903-1.8239s-1.577-1.163-2.703-1.4044c-.884-.1893-4.058.873-4.734 1.0949-.677.2219-2.707 2.7213-2.707 2.7213l2.031-3.4162s2.678-1.3181 3.608-2.2531c.677-.6803.181-1.6259-.674-2.07z" fill="#fff"/><path d="m255.927 97.3983c1.342-2.5033 3.684-5.9795 3.01-8.9664 0 0 .678-1.1387 1.805-1.8142 0 0 2.027 1.6263 3.155.9509.622-.373 1.354-1.819.151-2.5976m-8.482-7.348s2.678-1.3181 3.608-2.2531c.677-.6803.181-1.626-.674-2.0701s-4.284 1.5582-5.412 2.692l-1.202 2.3261m3.68-.6949-2.031 3.4161s2.03-2.4993 2.707-2.7212c.676-.2219 3.85-1.2843 4.734-1.0949 1.126.2413 2.454.5913 2.703 1.4044s-.34 1.7153-.903 1.8238c-1.127.2171-2.479-.256-2.479-.256s-1.374.544-2.255.8925m-2.476-3.4647c-.075.0756-.226.2268-1.127.217m3.603 3.2477c-.966.3825-2.03 1.5826-3.158 2.7164m3.158-2.7164c.966-.3824 2.33-.5096 3.832.2706 1.174.6104 3.604 1.8725 2.701 3.238-.902 1.3655-4.507-.9655-4.507-.9655-1.061.0747-3.157 2.258-3.157 2.258" stroke="#101738" stroke-linejoin="round" stroke-width=".295765"/><path d="m153.045 38.3813c-.474 1.7393-1.013 5.5818-1.013 5.5818l10.904 1.6282s3.862-4.5844 6.39-7.8937c.707-.9258-.915-2.9888-2.25-2.2227-2.605 1.4946-3.591 3.2318-3.591 3.2318s-.017.1142-.254-1.1507l1.099-2.5401 2.876-2.8472c.799-.3992 2.351-1.4506 1.559-2.8807-.586-1.0597-2.173-.408-2.173-.408l-4.985 3.5627s1.072-1.3036 2.096-2.7048c.553-.7561 1.921-.852 2.192-2.2706s-1.244-1.7982-2.099-1.3817c-1.621.7898-3.734 2.4065-4.867 4.3818-2.761-2.3476-5.55 6.6864-5.884 7.9139z" fill="#fff"/><path d="m161.799 33.3113c.429-.0888 1.478.602 1.241 1.5595m-1.007-6.6036c.429-.0888 1.05.6909 1.062 1.1426m-11.063 14.5533s.539-3.8425 1.013-5.5818c.334-1.2275 3.123-10.2615 5.884-7.9139 1.133-1.9753 3.246-3.592 4.867-4.3818.855-.4165 2.37-.0369 2.099 1.3817s-1.639 1.5145-2.192 2.2706c-1.024 1.4012-2.096 2.7048-2.096 2.7048l4.985-3.5627s1.587-.6517 2.173.408c.792 1.4301-.76 2.4815-1.559 2.8807l-2.876 2.8472-1.099 2.5401c.237 1.2649.254 1.1507.254 1.1507s.986-1.7372 3.591-3.2318c1.335-.7661 2.957 1.2969 2.25 2.2227-2.528 3.3093-6.39 7.8937-6.39 7.8937z" stroke="#101738" stroke-linejoin="round" stroke-width=".295765"/><path d="m4.61859 179.882 23.02681-21.114c.3909-.359.9466-.486 1.4572-.334l41.8222 12.454h2.2182l8.5701 2.426c12.0125-10.221 35.1079-34.554 35.1079-34.554l14.742-10.125 19.721 10.125s-37.037 38.265-53.6358 52.479c-5.2966 5.269-19.0933 3.655-26.2648.387-22.2946-10.159-33.8991-13.365-45.2445-17.494l-20.3453 7.183-.83389-.185c-.58309-.13-.77894-.846-.34112-1.248z" fill="#13926e"/><path d="m80.5564 183.362c-1.0501-3.655.4073-7.992 1.1567-10.048l-8.5701-2.426h-2.2182m29.3522-14.923 16.758-17.016 11.712-8.665" stroke="#101738" stroke-linecap="square" stroke-linejoin="round" stroke-width=".295765"/><path d="m3.59045 180.825 24.68675-22.637 42.6478 12.711s-1.4983 4.289-1.9264 7.49c-.6616 4.948-1.401 10.995-1.401 10.995-16.2671-6.285-32.2007-11.882-41.4587-15.252l-20.62019 7.308z" fill="#101738"/><path d="m3.59045 180.825 24.68675-22.637 1.1144.333-24.88959 22.642z" fill="#13926e"/><path d="m126.665 154.79c3.055-5.063 12.251-18.577 20.384-18.577l18.619 13.858s-36.136 43.842-40.39 47.692c-1.928 1.745-3.768 3.76-5.646 5.424-2.268 2.009-4.59 3.506-7.188 3.398-4.764-.198-11.4-.548-18.499-.951-.613-.035-1.2295-.07-1.8485-.106-17.9932-1.032-38.1344-2.341-38.1344-2.341l-12.1263 20.007-1.2693-.395 4.9078-32.668 43.2948-3.276s.5039-.523 1.1091-.83c.6053-.306 2.9577.522 2.9577.522l13.5851-1.028c6.945-9.181 17.19-25.665 20.244-30.729z" fill="#13926e"/><g mask="url(#d)"><ellipse cx="117.475" cy="204.4" fill="#101738" rx="7.39413" ry="7.39413"/></g><path d="m106.422 185.519c6.944-9.181 17.19-25.665 20.244-30.729 1.804-2.99 5.75-8.929 10.355-13.29m-30.599 44.019 2.27 7.895m-2.27-7.895-13.5857 1.028s-2.3524-.828-2.9577-.522c-.6052.307-1.1091.83-1.1091.83m23.6755 19.73c-4.765-.198-11.401-.548-18.4996-.951m31.3326-7.871c4.254-3.85 40.391-47.692 40.391-47.692m-71.7236 55.563c-.613-.035-1.2295-.07-1.8485-.106z" stroke="#101738" stroke-linejoin="round" stroke-width=".295765"/><path d="m40.567 222.799 4.9077-32.668 43.2838-3.453c0 9.643 0 14.264 3.3898 18.853-18.0062-1.033-38.1857-2.344-38.1857-2.344l-12.0811 20.006z" fill="#101738"/><path d="m40.567 222.799 4.9077-32.668 1.4356-.115-5.0288 33.178z" fill="#13926e"/><path d="m194.903 91.0438c-3.574 2.555-9.152 6.5426-9.152 6.5426l-2.623-11.3821 3.144-3.822c1.634-3.7642 2.724-8.1841 5.008-11.5365 2.706-3.9721 11.759-1.2776 13.184 2.7219.419 1.1754.369 2.5807-.135 3.8004l-1.614 4.4833c-.427 1.1848-1.119 2.8202-1.796 4.3529-.639 1.4499-1.264 2.8079-1.635 3.6056-.214.4595-.611.7894-1.064.8785-1.084.2128-3.035.5591-3.317.3554z" fill="#ffd2bc"/><path d="m192.999 89.8402s1.113.8297 1.903 1.2037c.395.2843 4.04-.503 4.04-.503m-4.299-8.4981 2.098-.6237c2.66.9806 5.091.6968 5.974.4323-.187.5174-.424 1.1206-.688 1.7636" stroke="#101738" stroke-linejoin="round" stroke-miterlimit="10" stroke-width=".295765"/><path d="m185.96 97.4392 8.942-6.3949-2.138-1.5414.663 1.6851z" fill="#101738"/><path d="m205.83 73.4806c.041-2.0369-6.214-4.4012-6.214-4.4012s-4.316-1.6306-6.51-.7001c-.561.2382-1.072 1.8011-1.072 1.8011-3.404-.9808-4.42 3.3002-4.42 3.3002l-2.993 11.0383s2.024 1.1118 4.533 2.7307l2.175-2.7307s-1.885-.6043-1.616-2.0068c.367-1.9199 1.505-2.7543 2.94-2.0168.978.5023.568 2.6439.568 2.6439s.933-.392 1.362-.77c.652-.574 2.277-4.5036 2.98-6.2577.208-.5179.669-.8669 1.206-.8682 1.005-.0025 2.887.063 5.685.4384.728.0978 1.335-.1643 1.376-2.2011z" fill="#101738"/><path d="m192.034 70.1804c-3.404-.9808-4.42 3.3002-4.42 3.3002l-2.993 11.0383s2.024 1.1118 4.533 2.7307l2.175-2.7307s-1.885-.6043-1.616-2.0068c.367-1.9199 1.505-2.7543 2.94-2.0168.978.5023.568 2.6439.568 2.6439s.933-.392 1.362-.77c.652-.574 2.277-4.5036 2.98-6.2577.208-.5179.669-.8669 1.206-.8682 1.005-.0025 2.887.063 5.685.4384.728.0978 1.335-.1643 1.376-2.2011.041-2.0369-6.214-4.4012-6.214-4.4012s-4.316-1.6306-6.51-.7001c-.561.2382-1.072 1.8011-1.072 1.8011zm0 0c.228.3794.762 1.185 1.068 1.372" stroke="#101738" stroke-width=".147883"/><path d="m190.728 84.0728c1.12.6593 2.509.2559 3.102-.9011.593-1.1569.166-2.6293-.955-3.2887-1.12-.6593-2.51-.2559-3.103.9011-.593 1.1569-.165 2.6293.956 3.2887z" fill="#ffd2bc"/><path d="m191.638 80.9204-.3 1.0411.579.3877" stroke="#101738" stroke-linecap="round" stroke-linejoin="round" stroke-width=".295765"/><path d="m193.493 93.5815c-2.496-4.318-8.503-6.9984-11.368-7.8303l-7.827 7.8303 15.128 10.0085z" fill="#13926e"/><circle cx="195.015" cy="77.0836" fill="url(#b)" r="20" transform="matrix(.33742552 .94135223 -.94135223 .33742552 201.774782 -132.504179)"/><path d="m163.916 44.8063s-8.965-1.0166-13.494-2.0334c0 0-4.436 27.1733-4.436 30.3159s2.643 15.7125 5.231 24.7703c-5.26 7.9489-22.226 31.7529-22.226 31.7529s21.628 16.538 33.089 24.604c0 0 17.12-17.127 27.168-27.938 0 0 29.755-6.606 39.552-9.379 6.27-1.774 27.913-19.0399 27.913-19.0399l-8.873-12.0154-23.477 16.2673-26.249 3.697c-4.996-5.108-29.946-19.9643-29.946-19.9643l-6.47-12.7549z" fill="#13926e"/><path d="m163.916 44.8063s-8.965-1.0166-13.494-2.0334c0 0-4.437 27.1733-4.437 30.3159s2.644 15.6399 5.232 24.6978l14.733-16.3793-4.252-8.3185z" fill="#13926e"/><path d="m163.916 44.8063s-8.965-1.0166-13.494-2.0334m106.291 55.0862-8.873-12.0154m-72.257 4.372c4.46 2.7668 12.851 8.5398 17.253 11.5753m-37.568-9.6433-25.58 36.7863m32.488 25.186 25.274-26.034m3.467-3.795-3.467 3.795m0 0 9.725-2.829" stroke="#101738" stroke-linejoin="round" stroke-width=".295765"/><path d="m162.184 154.235c-11.419-7.581-33.869-23.688-33.869-23.688s.866-1.229 1.443-1.921c13.643 10.15 34.119 23.641 34.119 23.641z" fill="#101738"/><path d="m97.7041 77.8624-18.6586 15.0556 25.4075 20.319 10.11-21.8921c-.153-4.4825-2.659-6.093-6.648-5.3171l-3.562-2.8484c.1-4.0084-2.482-6.4407-6.6489-5.317z" fill="#fff"/><path d="m97.7045 77.8624c4.1665-1.1237 6.7485 1.3087 6.6485 5.3171l3.562 2.8484c3.99-.7759 6.496.8346 6.649 5.317m-24.1042 10.7931 2.7728 2.126" stroke="#101738" stroke-linejoin="round" stroke-width=".295765"/><path d="m96.6925 102.728 10.8855-16.4813-3.324-2.6586-12.5779 15.0343z" fill="#101738"/><path clip-rule="evenodd" d="m91.4874 101.7c-2.7267 3.41-7.7013 3.964-11.111 1.237s-3.9633-7.7015-1.2365-11.1111c2.7268-3.4097 7.7013-3.9633 11.111-1.2366 3.4097 2.7268 3.9633 7.7014 1.2365 11.1107zm14.0096 11.204c-2.727 3.41-7.7012 3.963-11.1109 1.237-3.4097-2.727-3.9633-7.702-1.2365-11.111 2.7268-3.41 7.7014-3.9636 11.1114-1.237 3.409 2.727 3.963 7.701 1.236 11.111z" fill="#101738" fill-rule="evenodd"/><path clip-rule="evenodd" d="m79.8076 96.5449 10.5044-2.0635.3635 1.8505-10.5043 2.0635z" fill="#fff" fill-rule="evenodd"/><path clip-rule="evenodd" d="m93.5801 107.559 10.5039-2.064.364 1.851-10.5044 2.063z" fill="#fff" fill-rule="evenodd"/><path d="m105.463 108.749c1.497 3.744 23.713 20.096 50.91 11.802 24.196-7.379 42.491-16.162 43.802-16.35" stroke="#101738" stroke-width="1.47883"/></g></svg>