<svg fill="none" height="266" viewBox="0 0 266 266" width="266" xmlns="http://www.w3.org/2000/svg" xmlns:xlink="http://www.w3.org/1999/xlink"><linearGradient id="a" gradientUnits="userSpaceOnUse" x1="146.789" x2="203.642" y1="-11.4606" y2="259.137"><stop offset="0" stop-color="#13926e" stop-opacity=".15"/><stop offset="1" stop-color="#ef4921" stop-opacity=".05"/></linearGradient><linearGradient id="b" gradientUnits="userSpaceOnUse" x1="236.462" x2="229" y1="13.1148" y2="85.9997"><stop offset="0" stop-color="#13926e"/><stop offset="1" stop-color="#13926e"/></linearGradient><linearGradient id="c" gradientUnits="userSpaceOnUse" x1="-18.9701" x2="31.382" y1="-.726159" y2="32.6474"><stop offset="0" stop-color="#fff" stop-opacity=".45"/><stop offset="1" stop-color="#fff" stop-opacity=".15"/></linearGradient><clipPath id="d"><path d="m0 0h266v266h-266z"/></clipPath><mask id="e" height="184" maskUnits="userSpaceOnUse" width="144" x="23" y="12"><path d="m23.7665 75.7652 13.569 28.3118c.223.465.6704.782 1.1833.839l40.2355 4.432.7296 1.018 13.5491 4.006 17.472 42.753c.084.204.19.399.316.58l26.734 38.279 29.429-42.949c-5.19-4.692-17.53-18.628-20.945-22.172-2.627-21.744-4.35-39.3333-5.662-41.0059 0 0-6.786-9.5286-13.888-19.6092-.22-.3125-.33-.526-.552-.8407-.149-.2112-1.069-.3502-1.268-.6339-9.669-13.7276-19.826-29.2956-19.826-29.2956l.289-24.8924c.005-.4032-.154-.7912-.439-1.0757l-.49-.4872c-.385-.3836-1.038-.2402-1.227.2694l-12.0947 32.6056c-.1503.4052-.1177.8556.0893 1.235l24.9764 45.7652 5.724 25.4144c-9.675-26.9151-9.351-28.3017-19.225-28.728-4.8412-.209-14.1802-.3074-21.2997-.2424-.8312.0076-2.392.0296-2.392.0296s-.9577.7706-1.66.7888c-22.1123.5735-38.4456-.8616-38.4456-.8616l-12.8705-13.3091c-.399-.4126-.9992-.56-1.544-.3793z" fill="#12785f"/></mask><mask id="f" height="137" maskUnits="userSpaceOnUse" width="137" x="106" y="118"><path d="m158.198 254.805c-3.65-.75-38.735-51.929-51.332-70.83-.379-.569-.081-1.322.576-1.514 6.191-1.81 32.225-10.046 40.724-22.82 4.468-6.713 9.519-9.024 9.519-9.024l38.316 34.258s2.71-16.733 4.292-25.696c.358-2.027 14.628-28.077 21.868-41.146l20.625 10.375-19.625 37.633c.096 8.002-3.154 44.098-5.053 47.487-1.899 3.388-10.098 16.767-22.681 25.545-9.555 6.665-32.572 16.689-37.229 15.732z" fill="#12785f"/></mask><g clip-path="url(#d)"><path d="m264 149.941c0 65.411-48.277 105.63-107.787 112.946-44.292 5.446-117.9825-8.156-144.8935-61.7-23.7043-47.164-.3762-104.9606 49.4437-118.7899 30.8075-8.5517 19.2274-47.5984 49.0988-67.3741 80.344-53.1897 154.138 69.5081 154.138 134.918z" fill="url(#a)"/><g fill="#101738"><ellipse rx="94.9189" ry="38.4863" transform="matrix(.942745 -.333514 .211598 .977357 173.015 215.004)"/><path d="m222.818 118.262v-117.671912l40.326 14.400412v114.7915z"/><path d="m239.333 56.6171c-.288.7728.104 1.6331.877 1.9216l4.791 1.7889c.773.2885 1.166 1.1488.877 1.9216l-3.626 9.7122c-.288.7728-1.149 1.1654-1.922.8769l-4.791-1.7889c-.773-.2885-1.633.1041-1.922.8768l-3.812 10.2127c-.289.7728-1.149 1.1653-1.922.8768l-12.381-4.6224c-.773-.2885-1.166-1.1489-.877-1.9216l3.813-10.2127c.288-.7728-.104-1.6331-.877-1.9216l-27.728-10.352c-.772-.2885-1.165-1.1488-.876-1.9216l3.222-8.6304c.096-.2589.263-.4859.481-.6557l38.007-29.6161c.41-.3189.955-.4026 1.441-.2211l19.254 7.1883c.772.2885 1.165 1.1488.876 1.9216zm-17.101-4.7904c.773.2885 1.633-.104 1.921-.8768l8.468-22.6813c.022-.059-.008-.1246-.066-.1466-.038-.0139-.08-.0074-.111.0173l-21.576 17.0235c-.914.7212-.688 2.1645.403 2.5717z"/></g><path d="m242.092 56.196c-.288.7728.104 1.6331.877 1.9216l4.792 1.7888c.772.2886 1.165 1.1489.876 1.9217l-3.626 9.7122c-.288.7728-1.149 1.1653-1.921.8768l-4.792-1.7888c-.772-.2885-1.633.104-1.921.8768l-3.813 10.2127c-.289.7727-1.149 1.1653-1.922.8768l-12.381-4.6225c-.773-.2885-1.165-1.1488-.877-1.9216l3.813-10.2126c.289-.7728-.104-1.6331-.877-1.9217l-27.727-10.3519c-.773-.2885-1.166-1.1489-.877-1.9216l3.222-8.6304c.097-.2589.263-.4859.481-.6558l38.008-29.6161c.409-.3188.954-.4025 1.44-.2211l19.254 7.1883c.773.2885 1.165 1.1489.877 1.9216zm-17.101-4.7904c.773.2885 1.633-.1041 1.922-.8768l8.468-22.6814c.022-.0589-.008-.1246-.067-.1466-.037-.0139-.079-.0073-.111.0173l-21.575 17.0235c-.915.7212-.689 2.1646.402 2.5718z" fill="url(#b)" stroke="#101738" stroke-width=".149355"/><path d="m69.1698 212.834c.4731.675 1.4044.84 2.0801.367l2.2934-1.606c.6757-.473 1.607-.309 2.0801.366l3.7578 5.367c.4731.676.3089 1.607-.3668 2.08l-2.2933 1.606c-.6757.473-.8399 1.405-.3668 2.08l3.9766 5.68c.4732.675.309 1.607-.3667 2.08l-7.0337 4.925c-.6757.473-1.607.309-2.0801-.367l-3.9767-5.679c-.4731-.676-1.4044-.84-2.0801-.367l-16.6183 11.636c-.6757.473-1.607.309-2.0801-.367l-3.4603-4.941c-.1585-.227-.2511-.493-.2674-.768l-2.0194-33.998c-.0308-.518.2093-1.015.6342-1.312l11.4802-8.039c.6757-.473 1.607-.309 2.0801.367zm-9.8473 8.718c.6757-.473.8399-1.404.3668-2.08l-9.6743-13.816c-.0258-.037-.0765-.046-.1133-.02-.0233.016-.0364.043-.0345.072l1.2332 18.832c.076 1.162 1.3932 1.794 2.347 1.126z" fill="#101738"/><path d="m69.8055 210.29c.4731.676 1.4044.84 2.0801.367l2.2934-1.606c.6757-.473 1.607-.309 2.0801.367l3.7579 5.367c.4731.675.3089 1.607-.3668 2.08l-2.2934 1.605c-.6757.474-.8399 1.405-.3668 2.081l3.9767 5.679c.4731.676.3089 1.607-.3668 2.08l-7.0336 4.925c-.6757.473-1.607.309-2.0801-.367l-3.9767-5.679c-.4731-.676-1.4044-.84-2.0801-.367l-16.6184 11.636c-.6757.474-1.607.309-2.0801-.366l-3.4602-4.942c-.1585-.226-.2511-.492-.2675-.768l-2.0194-33.998c-.0307-.518.2094-1.014.6343-1.312l11.4801-8.039c.6757-.473 1.607-.308 2.0801.367zm-9.8473 8.719c.6757-.474.8399-1.405.3668-2.081l-9.6742-13.816c-.0258-.037-.0766-.046-.1134-.02-.0233.017-.0364.044-.0345.072l1.2332 18.832c.0761 1.162 1.3933 1.794 2.347 1.126z" fill="#13926e" stroke="#101738" stroke-width=".149355"/><path d="m23.7665 75.7652 13.569 28.3118c.223.465.6704.782 1.1833.839l40.2355 4.432.7296 1.018 13.5491 4.006 18.22 42.295c.072.168.16.33.262.482l26.04 38.835 29.429-42.949c-5.19-4.692-17.53-18.628-20.945-22.172-2.627-21.744-4.35-39.3333-5.662-41.0059-.546-.6957-6.786-9.5286-13.888-19.6092-.22-.3125-.33-.526-.552-.8407-.149-.2112-1.069-.3502-1.268-.6339-9.669-13.7276-19.826-29.2956-19.826-29.2956l.289-24.8924c.005-.4032-.154-.7912-.439-1.0757l-.49-.4872c-.385-.3836-1.038-.2402-1.227.2694l-12.0947 32.6056c-.1503.4052-.1177.8556.0893 1.235l24.9764 45.7652 5.724 25.4144c-9.675-26.9151-9.351-28.3017-19.225-28.728-4.8412-.209-14.1802-.3074-21.2997-.2424-.8312.0076-2.392.0296-2.392.0296s-.9577.7706-1.66.7888c-22.1123.5735-38.4456-.8616-38.4456-.8616l-12.8705-13.3091c-.399-.4126-.9992-.56-1.544-.3793z" fill="#13926e"/><g fill="#101738" mask="url(#e)"><path d="m116.463 98.0164c-1.46 1.3379-3.392 2.0406-5.371 1.9543-1.979-.0865-3.842-.9556-5.18-2.4159s-2.041-3.3924-1.954-5.371c.086-1.9787.955-3.842 2.416-5.1799l5.044 5.5062z"/><path d="m146.738 95.0271c-1.46 1.3379-3.392 2.0409-5.371 1.9544-1.979-.0866-3.842-.9556-5.18-2.416-1.338-1.4603-2.041-3.3923-1.954-5.371.086-1.9787.955-3.8419 2.416-5.1799l5.044 5.5063z"/></g><path d="m77.0944 90.1599c.7023-.0182 1.66-.7889 1.66-.7889s1.5608-.0219 2.392-.0295c7.1194-.065 16.4585.0334 21.2996.2424 9.875.4263 9.55 1.8129 19.225 28.7271m0 0-5.724-25.4136m5.724 25.4136 2.056 7.717 1.903-.534m-9.683-32.5966 3.708 4.7518m-3.708-4.7518-2.905-5.5209m32.997 43.4865-2.277 1.516" stroke="#101738" stroke-linejoin="round" stroke-width=".29871"/><path d="m123.739 125.973-5.606-30.0178-1.814-2.3893z" fill="#101738" stroke="#101738" stroke-width=".373387"/><path d="m23.5322 76.1907 13.2385 28.2543c.11.235.3341.396.5917.426l41.7012 4.748s-.9746-1.961-1.8875-7.375c-.9129-5.4141 0-12.1559 0-12.1559-22.1123.5734-38.4456-.8617-38.4456-.8617s-10.2107-10.728-13.5233-13.984c-.3198-.3144-.9232-.1455-1.3749.0526-.3426.1503-.4589.5569-.3001.8957z" fill="#101738"/><path d="m103.196 12.8314-12.6448 33.2985c-.0778.205-.0616.4338.0443.6258l22.5475 40.8755s2.073-5.5705 4.971-10.2985c2.899-4.728 6.636-8.6313 6.636-8.6313-9.807-13.261-19.825-29.2956-19.825-29.2956s.445-20.1764.416-25.5865c-.003-.5762-.666-1.0639-1.204-1.3647-.36-.202-.794-.0097-.941.3768z" fill="#101738"/><path d="m23.2552 75.5991 13.6928 29.2239 1.1337.129-13.7423-29.8038c-.21-.1167-1.0842.4509-1.0842.4509z" fill="#13926e"/><path d="m103.427 12.0924-12.9982 34.3607.7306 1.3245 13.4816-35.0084c-.163-.4901-1.214-.6768-1.214-.6768z" fill="#13926e"/><path d="m93.0766 114.492-2.0742-7.972.4764 7.393z" fill="#101738"/><path d="m151.271 136.272 1.509 1.108c-.359 14.829-34.444 34.581-41.792 20.567-2.349-4.48-14.2349-33.698-15.4951-37.992 1.6803 4.154 7.2301 16.442 10.9211 22.31 6.994 11.115 14.323 8.04 18.49 5.741 6.593-3.637 16.662-4.37 24.387-11.591.545-.51 1.379-.585 1.98-.143z" fill="#101738"/><path d="m151.435 213.717c-2.726-.56-28.927-38.779-38.333-52.894-.283-.425-.061-.987.43-1.13 4.623-1.352 24.064-7.503 30.411-17.042 3.337-5.013 7.108-6.739 7.108-6.739l28.614 25.583s2.024-12.495 3.206-19.189c.267-1.514 10.923-20.967 16.33-30.727l15.402 7.748-14.656 28.103c.072 5.976-2.355 32.932-3.773 35.462-1.418 2.531-7.541 12.521-16.937 19.077-7.136 4.977-24.325 12.463-27.802 11.748z" fill="#13926e"/><g fill="#101738" mask="url(#f)"><path d="m179.446 161.267c-1.401 1.401-3.3 2.188-5.281 2.188s-3.88-.787-5.28-2.188c-1.401-1.4-2.188-3.3-2.188-5.28 0-1.981.787-3.88 2.188-5.281l5.28 5.281z"/><path d="m127.585 184.165c1.637-1.116 3.649-1.536 5.595-1.168s3.667 1.494 4.782 3.13c1.116 1.637 1.536 3.649 1.168 5.595s-1.494 3.667-3.13 4.782l-4.208-6.17z"/></g><path d="m112.537 159.974c5.153 7.759 16.502 24.44 25.657 37.175m41.471-35.654 4.651 3.966m14.885-53.882 15.402 7.748" stroke="#101738" stroke-linejoin="round" stroke-width=".29871"/><path d="m143.943 142.651c3.336-5.013 7.108-6.739 7.108-6.739l2.127 1.902c-5.598 1.769-12.17 11.421-15.306 13.811l-2.894 3.708-1.866-.98c-5.33 2.861-13.721 6.199-18.93 8.087-.376-.562-.733-1.096-1.069-1.6-.283-.425-.072-1.004.418-1.147 4.624-1.352 24.065-7.503 30.412-17.042z" fill="#101738"/><path d="m213.25 94.4861s-1.541-6.7102.403-7.3295c1.958-.6241 2.901.4214 3.668 3.7739.768 3.3524.369 4.6152-.105 7.4424-.433 2.5831-.421 2.9011-.421 2.9011s1.542-2.2928 2.114-7.3598c.415-3.671-.503-5.7401.884-6.8065 2.295-1.7645 3.925 4.8913 3.925 4.8913s1.004-.2184 1.557 1.2718c.842 2.2629-2.928 12.1762-4.989 15.2812l-5.771 11.032-15.364-7.847c1.425-2.564 2.341-4.2 2.341-4.2-.485-4.096.352-6.499.726-9.0776.375-2.5786 2.747-3.6504 3.394-1.7722.647 1.8783-.688 4.4998 1.298 6.7848 1.904 2.189 3.113-.486 3.857-2.447z" fill="#fff"/><path d="m220.286 108.552c2.061-3.105 5.831-13.0183 4.989-15.2812-.553-1.4902-1.557-1.2718-1.557-1.2718m-10.468 2.4871s-1.541-6.7102.403-7.3295c1.958-.6241 2.901.4214 3.668 3.7739.768 3.3524.369 4.6152-.105 7.4424-.433 2.5831-.421 2.9011-.421 2.9011s1.542-2.2928 2.114-7.3598c.415-3.671-.503-5.7401.884-6.8065 2.295-1.7645 3.925 4.8913 3.925 4.8913m-10.468 2.4871s-1.029 2.7109-2.483 6.5389c-.744 1.961-1.953 4.636-3.857 2.447-1.986-2.285-.651-4.9065-1.298-6.7848-.647-1.8782-3.019-.8064-3.394 1.7722-.374 2.5786-1.211 4.9816-.726 9.0776m11.758-13.0509.892.3385m-12.65 12.7124-.027 1.86m.027-1.86s-.916 1.636-2.341 4.2m24.567-19.738s.387 5.2488-1.152 8.406" stroke="#101738" stroke-linejoin="round" stroke-width=".29871"/><path d="m206.469 114.195c-4.214-3.232-4.56-4.112-4.959-6.644l-2.349 4.236 15.331 7.792c-1.26-1.159-5.389-3.363-8.023-5.384z" fill="#101738"/><path d="m179.605 202.789-35.623-42.777-8.912-4.745s6.129-6.521 3.951-10.403" stroke="#101738" stroke-linejoin="round" stroke-width=".29871"/><path d="m197.411 206.486c-1.01.896-1.103 2.441-.207 3.452.895 1.01 2.441 1.102 3.451.206 1.011-.896 1.104-2.441.208-3.452-.896-1.01-2.441-1.102-3.452-.206z" fill="#ffd4bf" stroke="#101738" stroke-miterlimit="10" stroke-width=".149355"/><path d="m189.221 201.036c1.558-.086 3.145.435 4.339 1.559l9.212 8.689c.589.556 1.056 1.228 1.371 1.974.315.747.471 1.55.459 2.36s-.193 1.609-.531 2.345c-.338.737-.825 1.395-1.431 1.932l-6.402 5.677c-.606.537-1.318.942-2.09 1.19-.771.247-1.586.331-2.391.247-.806-.085-1.585-.336-2.288-.738s-1.315-.947-1.796-1.598l-7.525-10.185c-.793-1.076-1.158-2.364-1.118-3.636l-5.298-4.271c-1.456-1.521-2.249-3.559-2.203-5.665s.927-4.108 2.449-5.565c1.521-1.458 3.56-2.251 5.666-2.206s4.107.925 5.564 2.447z" fill="#ffd4bf"/><path d="m188.505 220.725 1.077-3.409 8.972-7.626h2.512" stroke="#101738" stroke-miterlimit="10" stroke-width=".29871"/><path d="m172.657 194.202 7.158 7.474s6.413-3.312 8.257-2.36l-4.255-5.569c-.283-.369-.721-.586-1.186-.587l-10.136-.011z" fill="#13926e"/><path d="m172.657 194.202 7.158 7.474s-3.465 6.019-2.23 8.041l-5.785-4.61c-.367-.293-.575-.74-.563-1.209l.273-9.885z" fill="#13926e"/><path d="m205.175 211.541c.858.657.861 1.452.654 2.468.846.735 1.451 3.273 1.462 4.439.015 1.452-4.571 6.867-7.976 9.886-1.637 1.452-2.837.858-3.916.433-2.373 1.728-5.331.091-6.83-1.599-1.039-1.172-3.011-3.025-5.036-6.08-2.289-3.454-3.698-6.859-3.698-6.859 1.15 1.719 5.586-.742 5.509 2.091 0 0-.548 3.164 2.795 3.105 1.689 2.08 3.258 3.853 4.53 4.479 1.98.973 4.631-1.747 6.335-3.178 1.991-1.671 4.491-3.088 4.876-4.881s-1.006-3.714-2.406-5.229l-3.948-4.237s5.07 3.192 7.649 5.162z" fill="#101738"/><path d="m184.023 216.841c-1.01.896-1.103 2.441-.208 3.452.896 1.01 2.442 1.102 3.452.206.329-.291.56-.651.692-1.038.275-.805.121-1.732-.484-2.414-.515-.58-1.244-.858-1.962-.819-.533.029-1.06.231-1.49.613z" fill="#ffd4bf"/><path d="m185.129 217.935-.148 1.251 1.429.542" stroke="#101738" stroke-linecap="round" stroke-linejoin="round" stroke-width=".29871"/><path d="m138.064 175.429s7.496 2.072 13.311 6.441c3.623-7.75 11.514-27.444 11.514-27.444s2.482-2.306 4.948-1.307c2.465.998 2.427 3.36 2.427 3.36l-6.155 26.292 20.903-22.371s3.24-1.626 5.228 0 1.4 4.2 1.4 4.2-14.227 18.537-20.013 24.853c0 0 1.238 1.139 1.556 1.544 0 0 .2-.36 5.94-3.394 5.739-3.035 15.971-8.161 15.971-8.161s2.342-1.141 4.014 1.214c1.671 2.355 0 3.477 0 3.477s-13.976 10.399-19.985 14.37l1.176 1.841 12.274-5.219s3.199-.384 4.201 2.053c1.002 2.438-1.68 4.481-1.68 4.481s-30.985 17.926-35.565 17.829c-10.55-.223-21.736-1.39-25.439-9.109-2.533-5.28-1.274-11.384 3.974-14.136 5.377-2.819 0-8.64-3.366-11.48-2.371-2-4.331-4.496-2.707-7.467 1.334-2.439 6.073-1.867 6.073-1.867z" fill="#101738"/><path d="m151.375 181.87c-5.815-4.369-13.311-6.441-13.311-6.441s-4.739-.572-6.073 1.867c-1.624 2.971.336 5.467 2.707 7.467 3.366 2.84 8.743 8.661 3.366 11.48-5.248 2.752-6.507 8.856-3.974 14.136 3.703 7.719 14.889 8.886 25.439 9.109 4.58.097 35.565-17.829 35.565-17.829s2.682-2.043 1.68-4.481c-1.002-2.437-4.201-2.053-4.201-2.053l-12.274 5.219-1.176-1.841c6.009-3.971 19.985-14.37 19.985-14.37s1.671-1.122 0-3.477c-1.672-2.355-4.014-1.214-4.014-1.214s-10.232 5.126-15.971 8.161c-5.74 3.034-5.94 3.394-5.94 3.394-.318-.405-1.556-1.544-1.556-1.544 5.786-6.316 20.013-24.853 20.013-24.853s.588-2.574-1.4-4.2-5.228 0-5.228 0l-20.903 22.371 6.155-26.292s.038-2.362-2.427-3.36c-2.466-.999-4.948 1.307-4.948 1.307s-7.891 19.694-11.514 27.444zm0 0v2.263" stroke="#101738" stroke-linejoin="round" stroke-width=".149355"/><path d="m139.557 175.429s7.497 2.072 13.312 6.441c3.623-7.75 11.514-27.444 11.514-27.444s2.482-2.306 4.947-1.307c2.465.998 2.427 3.36 2.427 3.36l-6.154 26.292 20.903-22.371s3.24-1.626 5.227 0c1.988 1.626 1.401 4.2 1.401 4.2s-14.227 18.537-20.014 24.853c0 0 1.238 1.139 1.557 1.544 0 0 .2-.36 5.939-3.394 5.74-3.035 15.971-8.161 15.971-8.161s2.343-1.141 4.014 1.214c1.672 2.355 0 3.477 0 3.477s-13.975 10.399-19.984 14.37l1.176 1.841 12.274-5.219s3.199-.384 4.201 2.053c1.002 2.438-1.681 4.481-1.681 4.481s-30.984 17.926-35.565 17.829c-10.549-.223-21.735-1.39-25.438-9.109-2.533-5.28-1.275-11.384 3.973-14.136 5.378-2.819.001-8.64-3.365-11.48-2.371-2-4.332-4.496-2.707-7.467 1.334-2.439 6.072-1.867 6.072-1.867z" fill="#fff"/><g stroke="#101738"><g stroke-width=".29871"><path d="m152.869 181.87c-5.815-4.369-13.312-6.441-13.312-6.441s-4.738-.572-6.072 1.867c-1.625 2.971.336 5.467 2.707 7.467 3.366 2.84 8.743 8.661 3.365 11.48-5.248 2.752-6.506 8.856-3.973 14.136 3.703 7.719 14.889 8.886 25.438 9.109 4.581.097 35.565-17.829 35.565-17.829s2.683-2.043 1.681-4.481c-1.002-2.437-4.201-2.053-4.201-2.053l-12.274 5.219-1.176-1.841c6.009-3.971 19.984-14.37 19.984-14.37s1.672-1.122 0-3.477c-1.671-2.355-4.014-1.214-4.014-1.214s-10.231 5.126-15.971 8.161c-5.739 3.034-5.939 3.394-5.939 3.394-.319-.405-1.557-1.544-1.557-1.544 5.787-6.316 20.014-24.853 20.014-24.853s.587-2.574-1.401-4.2c-1.987-1.626-5.227 0-5.227 0l-20.903 22.371 6.154-26.292s.038-2.362-2.427-3.36c-2.465-.999-4.947 1.307-4.947 1.307s-7.891 19.694-11.514 27.444zm0 0v2.263" stroke-linejoin="round"/><path d="m153.904 188.522c1.665 1.322 3.553 4.916 2.962 8.098-.563 3.032-2.863 5.884-5.164 6.881"/><path d="m161.146 184.232 14.023 16.949"/></g><path d="m134.722 212.613c-2.396-6.273.273-16.287 4.844-16.278-.815 2.898-2.276 8.899 1.573 14.286 3.848 5.387 11.422 9.624 16.445 9.831-.182.649-4.107 1.729-8.35 1.414-4.243-.316-12.11-2.961-14.512-9.253z" fill="#13926e" stroke-width=".224032"/></g><path d="m143.37 211.313c-4.044-5.472-5.204-10.479-3.398-15.235-5.457 5.41-2.634 14.1-.704 17.078 3.218 4.963 14.073 7.725 19.024 7.225-3.905-.463-11.777-4.813-14.922-9.068z" fill="#101738"/><path d="m111.555 85.8143c17.55-.2109 37.146-.4463 51.063 15.8187l-1.781-.009-.476 1.966c-12.981-15.1854-31.208-14.9826-49.048-14.7842-.919.0103-1.837.0205-2.753.0286-9.2668.0819-18.3967-.0687-26.1054-2.9827-7.8449-2.9655-14.1222-8.748-17.7782-19.6027l2.8308-.9535c3.3825 10.0424 9.0313 15.1264 16.0036 17.7621 7.1086 2.6871 15.6872 2.8723 25.0232 2.7898.998-.0088 2.004-.0209 3.017-.0331h.002z" fill="#0a0e23"/><path d="m154.371 143.549c-11.908 12.782-26.22 29.416-28.634 59.019-.368 4.508 1.635 9.476 5.44 14.21 3.789 4.714 9.254 9.049 15.484 12.244 12.54 6.431 27.627 8.009 38.182-.345l1.854 2.343c-11.881 9.402-28.376 7.339-41.399.66-6.55-3.359-12.362-7.946-16.449-13.031-4.071-5.065-6.543-10.772-6.09-16.324 2.499-30.634 17.391-47.893 29.426-60.812.617-.661 1.223-1.31 1.818-1.946 5.268-5.627 9.655-10.314 12.084-15.055 1.326-2.589 2.027-5.126 1.963-7.775-.063-2.651-.894-5.527-2.809-8.789l2.576-1.512c2.117 3.605 3.141 6.973 3.22 10.229.006.265.006.529 0 .792l-.269.167.262.064c-.106 2.871-.945 5.571-2.284 8.186-2.635 5.141-7.336 10.158-12.523 15.695l-.004.004c-.61.651-1.227 1.31-1.848 1.976z" fill="#0a0e23"/><path d="m111.555 85.8143c17.55-.2109 37.146-.4463 51.063 15.8187l-1.781-.009-.476 1.966c-12.981-15.1854-31.208-14.9826-49.048-14.7842-.919.0103-1.837.0205-2.753.0286-9.2668.0819-18.3967-.0687-26.1054-2.9827-7.8449-2.9655-14.1222-8.748-17.7782-19.6027l2.8308-.9535c3.3825 10.0424 9.0313 15.1264 16.0036 17.7621 7.1086 2.6871 15.6872 2.8723 25.0232 2.7898.998-.0088 2.004-.0209 3.017-.0331h.002z" stroke="#0a0e23" stroke-width=".149355"/><path d="m154.371 143.549c-11.908 12.782-26.22 29.416-28.634 59.019-.368 4.508 1.635 9.476 5.44 14.21 3.789 4.714 9.254 9.049 15.484 12.244 12.54 6.431 27.627 8.009 38.182-.345l1.854 2.343c-11.881 9.402-28.376 7.339-41.399.66-6.55-3.359-12.362-7.946-16.449-13.031-4.071-5.065-6.543-10.772-6.09-16.324 2.499-30.634 17.391-47.893 29.426-60.812.617-.661 1.223-1.31 1.818-1.946 5.268-5.627 9.655-10.314 12.084-15.055 1.326-2.589 2.027-5.126 1.963-7.775-.063-2.651-.894-5.527-2.809-8.789l2.576-1.512c2.117 3.605 3.141 6.973 3.22 10.229.006.265.006.529 0 .792l-.269.167.262.064c-.106 2.871-.945 5.571-2.284 8.186-2.635 5.141-7.336 10.158-12.523 15.695l-.004.004c-.61.651-1.227 1.31-1.848 1.976z" stroke="#0a0e23" stroke-width=".149355"/><path d="m111.36 84.4056c17.551-.2108 37.146-.4462 51.064 15.8194l-1.781-.01-.476 1.966c-12.981-15.185-31.209-14.9823-49.049-14.7838-.918.0102-1.836.0204-2.752.0285-9.2671.0819-18.397-.0687-26.1057-2.9827-7.845-2.9655-14.1222-8.748-17.7783-19.6027l2.8309-.9535c3.3824 10.0424 9.0312 15.1264 16.0036 17.7621 7.1085 2.6871 15.6871 2.8723 25.0235 2.7898.997-.0088 2.004-.0209 3.016-.0331h.003z" fill="#ef4921"/><path d="m150.478 142.541c-13.135 12.689-27.338 28.576-25.112 55.831 1.007 12.327 10.33 23.51 22.31 29.454 11.959 5.934 26.146 6.449 36.778-1.966l1.854 2.342c-11.804 9.342-27.307 8.578-39.96 2.3-12.633-6.268-22.844-18.233-23.959-31.887-2.342-28.671 12.747-45.405 26.014-58.222 1.151-1.113 2.283-2.191 3.385-3.241l.002-.001.001-.001c5.315-5.063 9.948-9.475 12.812-13.961 1.7-2.662 2.704-5.253 2.859-7.916.155-2.649-.522-5.509-2.415-8.733l2.576-1.513c2.139 3.643 3.016 7.083 2.821 10.42-.194 3.322-1.442 6.403-3.323 9.35-3.078 4.821-8.045 9.547-13.362 14.607-1.083 1.03-2.181 2.075-3.281 3.137z" fill="#ef4921"/><path d="m111.36 84.4056c17.551-.2108 37.146-.4462 51.064 15.8194l-1.781-.01-.476 1.966c-12.981-15.185-31.209-14.9823-49.049-14.7838-.918.0102-1.836.0204-2.752.0285-9.2671.0819-18.397-.0687-26.1057-2.9827-7.845-2.9655-14.1222-8.748-17.7783-19.6027l2.8309-.9535c3.3824 10.0424 9.0312 15.1264 16.0036 17.7621 7.1085 2.6871 15.6871 2.8723 25.0235 2.7898.997-.0088 2.004-.0209 3.016-.0331h.003z" stroke="#0a0e23" stroke-width=".149355"/><path d="m150.478 142.541c-13.135 12.689-27.338 28.576-25.112 55.831 1.007 12.327 10.33 23.51 22.31 29.454 11.959 5.934 26.146 6.449 36.778-1.966l1.854 2.342c-11.804 9.342-27.307 8.578-39.96 2.3-12.633-6.268-22.844-18.233-23.959-31.887-2.342-28.671 12.747-45.405 26.014-58.222 1.151-1.113 2.283-2.191 3.385-3.241l.002-.001.001-.001c5.315-5.063 9.948-9.475 12.812-13.961 1.7-2.662 2.704-5.253 2.859-7.916.155-2.649-.522-5.509-2.415-8.733l2.576-1.513c2.139 3.643 3.016 7.083 2.821 10.42-.194 3.322-1.442 6.403-3.323 9.35-3.078 4.821-8.045 9.547-13.362 14.607-1.083 1.03-2.181 2.075-3.281 3.137z" stroke="#0a0e23" stroke-width=".149355"/><circle fill="url(#c)" r="20" transform="matrix(.0123133 -.999924 -.999924 -.0123133 193.969 214.866)"/><g fill="#fff" opacity=".45"><circle cx="219.25" cy="183.25" r=".25"/><circle cx="251.25" cy="106.25" r=".25"/><circle cx="237.25" cy="80.25" r=".25"/><circle cx="252.25" cy="48.25" r=".25"/><circle cx="226.25" cy="9.25" r=".25"/><circle cx="234.25" cy="111.25" r=".25"/><circle cx="199.25" cy="175.25" r=".25"/><circle cx="219.25" cy="219.25" r=".25"/><circle cx="163.25" cy="223.25" r=".25"/><circle cx="155.25" cy="247.25" r=".25"/><circle cx="123.25" cy="231.25" r=".25"/><circle cx="103.5" cy="247.5" r=".5"/></g></g></svg>